<svg width="1919" height="746" viewBox="0 0 1919 746" fill="none" xmlns="http://www.w3.org/2000/svg">
<rect width="1919" height="746" fill="#EFF2F7"/>
<g clip-path="url(#clip0)">
<rect width="1920" height="3702" transform="translate(-1 -2577)" fill="white"/>
<rect width="1919" height="746" fill="#F4F9FF"/>
<path d="M660.082 89.978C660.574 89.474 661.132 89.006 661.756 88.574C662.392 88.142 663.088 87.776 663.844 87.476C664.6 87.164 665.416 86.924 666.292 86.756C667.168 86.576 668.098 86.486 669.082 86.486C671.014 86.486 672.784 86.816 674.392 87.476C676 88.136 677.38 89.06 678.532 90.248C679.684 91.436 680.578 92.852 681.214 94.496C681.85 96.128 682.168 97.922 682.168 99.878C682.168 101.798 681.874 103.58 681.286 105.224C680.698 106.856 679.852 108.272 678.748 109.472C677.656 110.66 676.318 111.596 674.734 112.28C673.162 112.952 671.38 113.288 669.388 113.288C667.216 113.288 665.332 112.94 663.736 112.244C662.152 111.536 660.832 110.492 659.776 109.112L662.188 106.574C662.32 106.442 662.458 106.352 662.602 106.304C662.746 106.244 662.89 106.214 663.034 106.214C663.214 106.214 663.388 106.256 663.556 106.34C663.724 106.412 663.88 106.508 664.024 106.628C664.384 106.952 664.738 107.222 665.086 107.438C665.434 107.642 665.806 107.81 666.202 107.942C666.598 108.062 667.018 108.152 667.462 108.212C667.918 108.26 668.428 108.284 668.992 108.284C669.82 108.284 670.606 108.146 671.35 107.87C672.094 107.594 672.766 107.186 673.366 106.646C673.966 106.106 674.476 105.44 674.896 104.648C675.316 103.856 675.61 102.944 675.778 101.912H664.618V97.556H675.742C675.562 96.584 675.274 95.726 674.878 94.982C674.494 94.226 674.014 93.59 673.438 93.074C672.874 92.558 672.226 92.168 671.494 91.904C670.762 91.64 669.97 91.508 669.118 91.508C668.158 91.508 667.378 91.61 666.778 91.814C666.19 92.006 665.692 92.222 665.284 92.462C664.888 92.69 664.546 92.906 664.258 93.11C663.982 93.302 663.682 93.398 663.358 93.398C663.034 93.398 662.782 93.332 662.602 93.2C662.422 93.056 662.266 92.9 662.134 92.732L660.082 89.978ZM709.244 113H703.682C703.142 113 702.686 112.856 702.314 112.568C701.942 112.28 701.6 111.866 701.288 111.326L696.932 103.136C696.644 102.608 696.32 102.26 695.96 102.092C695.6 101.924 695.144 101.84 694.592 101.84H691.856V113H685.772V86.774H691.856V97.394H694.088C694.544 97.394 694.934 97.31 695.258 97.142C695.594 96.974 695.9 96.668 696.176 96.224L700.928 88.322C701.204 87.866 701.54 87.494 701.936 87.206C702.332 86.918 702.812 86.774 703.376 86.774H708.596L702.206 97.088C701.906 97.568 701.546 97.964 701.126 98.276C700.706 98.588 700.244 98.846 699.74 99.05C700.544 99.266 701.228 99.626 701.792 100.13C702.356 100.622 702.884 101.306 703.376 102.182L709.244 113ZM736.473 99.878C736.473 101.774 736.143 103.538 735.483 105.17C734.835 106.802 733.917 108.224 732.729 109.436C731.541 110.636 730.107 111.578 728.427 112.262C726.759 112.946 724.905 113.288 722.865 113.288C720.825 113.288 718.965 112.946 717.285 112.262C715.605 111.578 714.165 110.636 712.965 109.436C711.777 108.224 710.853 106.802 710.193 105.17C709.545 103.538 709.221 101.774 709.221 99.878C709.221 97.982 709.545 96.218 710.193 94.586C710.853 92.954 711.777 91.538 712.965 90.338C714.165 89.138 715.605 88.196 717.285 87.512C718.965 86.828 720.825 86.486 722.865 86.486C724.905 86.486 726.759 86.834 728.427 87.53C730.107 88.214 731.541 89.156 732.729 90.356C733.917 91.556 734.835 92.972 735.483 94.604C736.143 96.236 736.473 97.994 736.473 99.878ZM730.245 99.878C730.245 98.582 730.077 97.418 729.741 96.386C729.405 95.342 728.919 94.46 728.283 93.74C727.659 93.02 726.891 92.468 725.979 92.084C725.067 91.7 724.029 91.508 722.865 91.508C721.689 91.508 720.639 91.7 719.715 92.084C718.803 92.468 718.029 93.02 717.393 93.74C716.769 94.46 716.289 95.342 715.953 96.386C715.617 97.418 715.449 98.582 715.449 99.878C715.449 101.186 715.617 102.362 715.953 103.406C716.289 104.438 716.769 105.314 717.393 106.034C718.029 106.754 718.803 107.306 719.715 107.69C720.639 108.062 721.689 108.248 722.865 108.248C724.029 108.248 725.067 108.062 725.979 107.69C726.891 107.306 727.659 106.754 728.283 106.034C728.919 105.314 729.405 104.438 729.741 103.406C730.077 102.362 730.245 101.186 730.245 99.878ZM762.95 86.774V113H756.83V101.912H746.174V113H740.054V86.774H746.174V97.736H756.83V86.774H762.95ZM793.778 99.878C793.778 101.774 793.448 103.538 792.788 105.17C792.14 106.802 791.222 108.224 790.034 109.436C788.846 110.636 787.412 111.578 785.732 112.262C784.064 112.946 782.21 113.288 780.17 113.288C778.13 113.288 776.27 112.946 774.59 112.262C772.91 111.578 771.47 110.636 770.27 109.436C769.082 108.224 768.158 106.802 767.498 105.17C766.85 103.538 766.526 101.774 766.526 99.878C766.526 97.982 766.85 96.218 767.498 94.586C768.158 92.954 769.082 91.538 770.27 90.338C771.47 89.138 772.91 88.196 774.59 87.512C776.27 86.828 778.13 86.486 780.17 86.486C782.21 86.486 784.064 86.834 785.732 87.53C787.412 88.214 788.846 89.156 790.034 90.356C791.222 91.556 792.14 92.972 792.788 94.604C793.448 96.236 793.778 97.994 793.778 99.878ZM787.55 99.878C787.55 98.582 787.382 97.418 787.046 96.386C786.71 95.342 786.224 94.46 785.588 93.74C784.964 93.02 784.196 92.468 783.284 92.084C782.372 91.7 781.334 91.508 780.17 91.508C778.994 91.508 777.944 91.7 777.02 92.084C776.108 92.468 775.334 93.02 774.698 93.74C774.074 94.46 773.594 95.342 773.258 96.386C772.922 97.418 772.754 98.582 772.754 99.878C772.754 101.186 772.922 102.362 773.258 103.406C773.594 104.438 774.074 105.314 774.698 106.034C775.334 106.754 776.108 107.306 777.02 107.69C777.944 108.062 778.994 108.248 780.17 108.248C781.334 108.248 782.372 108.062 783.284 107.69C784.196 107.306 784.964 106.754 785.588 106.034C786.224 105.314 786.71 104.438 787.046 103.406C787.382 102.362 787.55 101.186 787.55 99.878ZM826.842 86.774V113H821.478V97.916C821.478 97.568 821.484 97.19 821.496 96.782C821.52 96.374 821.556 95.96 821.604 95.54L814.638 109.022C814.422 109.442 814.128 109.76 813.756 109.976C813.396 110.192 812.982 110.3 812.514 110.3H811.686C811.218 110.3 810.798 110.192 810.426 109.976C810.066 109.76 809.778 109.442 809.562 109.022L802.596 95.504C802.632 95.936 802.662 96.362 802.686 96.782C802.71 97.19 802.722 97.568 802.722 97.916V113H797.358V86.774H802.002C802.266 86.774 802.494 86.78 802.686 86.792C802.89 86.804 803.07 86.84 803.226 86.9C803.382 86.96 803.52 87.056 803.64 87.188C803.772 87.308 803.898 87.482 804.018 87.71L810.768 101.012C811.008 101.468 811.236 101.942 811.452 102.434C811.68 102.926 811.896 103.43 812.1 103.946C812.304 103.418 812.514 102.902 812.73 102.398C812.958 101.894 813.198 101.414 813.45 100.958L820.182 87.71C820.302 87.482 820.422 87.308 820.542 87.188C820.674 87.056 820.818 86.96 820.974 86.9C821.13 86.84 821.304 86.804 821.496 86.792C821.7 86.78 821.934 86.774 822.198 86.774H826.842ZM854.813 86.774V113H848.693V98.312C848.693 97.628 848.711 96.908 848.747 96.152C848.795 95.384 848.879 94.568 848.999 93.704C848.723 94.472 848.423 95.186 848.099 95.846C847.775 96.494 847.457 97.064 847.145 97.556L839.171 111.182C839.039 111.398 838.877 111.614 838.685 111.83C838.505 112.046 838.301 112.244 838.073 112.424C837.845 112.592 837.599 112.73 837.335 112.838C837.071 112.946 836.795 113 836.507 113H831.917V86.774H838.037V101.444C838.037 102.128 838.019 102.854 837.983 103.622C837.947 104.378 837.863 105.188 837.731 106.052C838.007 105.296 838.307 104.594 838.631 103.946C838.955 103.286 839.273 102.71 839.585 102.218L847.559 88.592C847.691 88.376 847.847 88.16 848.027 87.944C848.219 87.728 848.429 87.536 848.657 87.368C848.885 87.188 849.131 87.044 849.395 86.936C849.659 86.828 849.935 86.774 850.223 86.774H854.813ZM879.647 86.774V113H873.527V103.154C872.099 103.478 870.737 103.712 869.441 103.856C868.157 104 866.957 104.024 865.841 103.928C864.737 103.832 863.735 103.604 862.835 103.244C861.935 102.884 861.167 102.368 860.531 101.696C859.895 101.012 859.403 100.16 859.055 99.14C858.719 98.12 858.551 96.902 858.551 95.486V86.774H864.671V95.504C864.671 96.356 864.785 97.094 865.013 97.718C865.241 98.342 865.679 98.816 866.327 99.14C866.975 99.464 867.875 99.62 869.027 99.608C870.179 99.596 871.679 99.386 873.527 98.978V86.774H879.647ZM890.842 91.454V97.574H899.086V102.074H890.842V108.32H901.606V113H884.722V86.774H901.606V91.454H890.842ZM922.507 106.214C922.651 106.214 922.795 106.244 922.939 106.304C923.083 106.352 923.221 106.442 923.353 106.574L925.765 109.112C924.709 110.492 923.383 111.536 921.787 112.244C920.203 112.94 918.325 113.288 916.153 113.288C914.161 113.288 912.373 112.952 910.789 112.28C909.217 111.596 907.879 110.66 906.775 109.472C905.683 108.272 904.843 106.856 904.255 105.224C903.667 103.58 903.373 101.798 903.373 99.878C903.373 97.922 903.691 96.128 904.327 94.496C904.963 92.852 905.857 91.436 907.009 90.248C908.161 89.06 909.541 88.136 911.149 87.476C912.757 86.816 914.527 86.486 916.459 86.486C917.443 86.486 918.367 86.576 919.231 86.756C920.107 86.924 920.923 87.164 921.679 87.476C922.435 87.776 923.131 88.142 923.767 88.574C924.403 89.006 924.967 89.474 925.459 89.978L923.407 92.732C923.275 92.9 923.119 93.056 922.939 93.2C922.759 93.332 922.507 93.398 922.183 93.398C921.967 93.398 921.763 93.35 921.571 93.254C921.379 93.158 921.175 93.044 920.959 92.912C920.743 92.768 920.503 92.618 920.239 92.462C919.987 92.294 919.681 92.144 919.321 92.012C918.973 91.868 918.559 91.748 918.079 91.652C917.611 91.556 917.059 91.508 916.423 91.508C915.415 91.508 914.491 91.694 913.651 92.066C912.823 92.438 912.103 92.984 911.491 93.704C910.891 94.412 910.423 95.288 910.087 96.332C909.763 97.364 909.601 98.546 909.601 99.878C909.601 101.222 909.781 102.416 910.141 103.46C910.513 104.504 911.011 105.386 911.635 106.106C912.271 106.814 913.009 107.354 913.849 107.726C914.689 108.098 915.589 108.284 916.549 108.284C917.101 108.284 917.605 108.26 918.061 108.212C918.517 108.152 918.943 108.062 919.339 107.942C919.735 107.81 920.107 107.642 920.455 107.438C920.803 107.222 921.157 106.952 921.517 106.628C921.661 106.508 921.817 106.412 921.985 106.34C922.153 106.256 922.327 106.214 922.507 106.214ZM951.893 113H946.331C945.791 113 945.335 112.856 944.963 112.568C944.591 112.28 944.249 111.866 943.937 111.326L939.581 103.136C939.293 102.608 938.969 102.26 938.609 102.092C938.249 101.924 937.793 101.84 937.241 101.84H934.505V113H928.421V86.774H934.505V97.394H936.737C937.193 97.394 937.583 97.31 937.907 97.142C938.243 96.974 938.549 96.668 938.825 96.224L943.577 88.322C943.853 87.866 944.189 87.494 944.585 87.206C944.981 86.918 945.461 86.774 946.025 86.774H951.245L944.855 97.088C944.555 97.568 944.195 97.964 943.775 98.276C943.355 98.588 942.893 98.846 942.389 99.05C943.193 99.266 943.877 99.626 944.441 100.13C945.005 100.622 945.533 101.306 946.025 102.182L951.893 113ZM977.192 86.774V113H971.072V98.312C971.072 97.628 971.09 96.908 971.126 96.152C971.174 95.384 971.258 94.568 971.378 93.704C971.102 94.472 970.802 95.186 970.478 95.846C970.154 96.494 969.836 97.064 969.524 97.556L961.55 111.182C961.418 111.398 961.256 111.614 961.064 111.83C960.884 112.046 960.68 112.244 960.452 112.424C960.224 112.592 959.978 112.73 959.714 112.838C959.45 112.946 959.174 113 958.886 113H954.296V86.774H960.416V101.444C960.416 102.128 960.398 102.854 960.362 103.622C960.326 104.378 960.242 105.188 960.11 106.052C960.386 105.296 960.686 104.594 961.01 103.946C961.334 103.286 961.652 102.71 961.964 102.218L969.938 88.592C970.07 88.376 970.226 88.16 970.406 87.944C970.598 87.728 970.808 87.536 971.036 87.368C971.264 87.188 971.51 87.044 971.774 86.936C972.038 86.828 972.314 86.774 972.602 86.774H977.192ZM988.4 91.454V97.574H996.644V102.074H988.4V108.32H999.164V113H982.28V86.774H999.164V91.454H988.4ZM1033.33 113H1027.21V91.292H1017.37V113H1011.25V86.774H1033.33V113ZM1064.16 99.878C1064.16 101.774 1063.83 103.538 1063.17 105.17C1062.53 106.802 1061.61 108.224 1060.42 109.436C1059.23 110.636 1057.8 111.578 1056.12 112.262C1054.45 112.946 1052.6 113.288 1050.56 113.288C1048.52 113.288 1046.66 112.946 1044.98 112.262C1043.3 111.578 1041.86 110.636 1040.66 109.436C1039.47 108.224 1038.54 106.802 1037.88 105.17C1037.24 103.538 1036.91 101.774 1036.91 99.878C1036.91 97.982 1037.24 96.218 1037.88 94.586C1038.54 92.954 1039.47 91.538 1040.66 90.338C1041.86 89.138 1043.3 88.196 1044.98 87.512C1046.66 86.828 1048.52 86.486 1050.56 86.486C1052.6 86.486 1054.45 86.834 1056.12 87.53C1057.8 88.214 1059.23 89.156 1060.42 90.356C1061.61 91.556 1062.53 92.972 1063.17 94.604C1063.83 96.236 1064.16 97.994 1064.16 99.878ZM1057.94 99.878C1057.94 98.582 1057.77 97.418 1057.43 96.386C1057.1 95.342 1056.61 94.46 1055.97 93.74C1055.35 93.02 1054.58 92.468 1053.67 92.084C1052.76 91.7 1051.72 91.508 1050.56 91.508C1049.38 91.508 1048.33 91.7 1047.41 92.084C1046.49 92.468 1045.72 93.02 1045.08 93.74C1044.46 94.46 1043.98 95.342 1043.64 96.386C1043.31 97.418 1043.14 98.582 1043.14 99.878C1043.14 101.186 1043.31 102.362 1043.64 103.406C1043.98 104.438 1044.46 105.314 1045.08 106.034C1045.72 106.754 1046.49 107.306 1047.41 107.69C1048.33 108.062 1049.38 108.248 1050.56 108.248C1051.72 108.248 1052.76 108.062 1053.67 107.69C1054.58 107.306 1055.35 106.754 1055.97 106.034C1056.61 105.314 1057.1 104.438 1057.43 103.406C1057.77 102.362 1057.94 101.186 1057.94 99.878ZM1091.22 113H1085.66C1085.12 113 1084.66 112.856 1084.29 112.568C1083.92 112.28 1083.57 111.866 1083.26 111.326L1078.91 103.136C1078.62 102.608 1078.29 102.26 1077.93 102.092C1077.57 101.924 1077.12 101.84 1076.57 101.84H1073.83V113H1067.75V86.774H1073.83V97.394H1076.06C1076.52 97.394 1076.91 97.31 1077.23 97.142C1077.57 96.974 1077.87 96.668 1078.15 96.224L1082.9 88.322C1083.18 87.866 1083.51 87.494 1083.91 87.206C1084.31 86.918 1084.79 86.774 1085.35 86.774H1090.57L1084.18 97.088C1083.88 97.568 1083.52 97.964 1083.1 98.276C1082.68 98.588 1082.22 98.846 1081.71 99.05C1082.52 99.266 1083.2 99.626 1083.77 100.13C1084.33 100.622 1084.86 101.306 1085.35 102.182L1091.22 113ZM1107.41 102.974L1104.98 95.792C1104.8 95.336 1104.61 94.802 1104.4 94.19C1104.2 93.566 1103.99 92.894 1103.79 92.174C1103.61 92.906 1103.42 93.584 1103.21 94.208C1103.01 94.832 1102.82 95.372 1102.64 95.828L1100.23 102.974H1107.41ZM1117.07 113H1112.36C1111.83 113 1111.4 112.88 1111.08 112.64C1110.76 112.388 1110.51 112.07 1110.34 111.686L1108.79 107.114H1098.82L1097.27 111.686C1097.14 112.022 1096.9 112.328 1096.55 112.604C1096.22 112.868 1095.8 113 1095.29 113H1090.54L1100.69 86.774H1106.92L1117.07 113ZM1117.58 89.276C1118.6 88.412 1119.85 87.734 1121.34 87.242C1122.84 86.738 1124.46 86.486 1126.2 86.486C1127.68 86.486 1129.01 86.66 1130.2 87.008C1131.4 87.344 1132.42 87.818 1133.26 88.43C1134.1 89.042 1134.74 89.78 1135.18 90.644C1135.64 91.496 1135.87 92.438 1135.87 93.47C1135.87 94.646 1135.61 95.738 1135.09 96.746C1134.59 97.742 1133.79 98.57 1132.7 99.23C1133.25 99.518 1133.76 99.854 1134.23 100.238C1134.7 100.61 1135.09 101.024 1135.42 101.48C1135.75 101.924 1136.01 102.41 1136.19 102.938C1136.38 103.454 1136.48 104.006 1136.48 104.594C1136.48 105.806 1136.25 106.94 1135.8 107.996C1135.35 109.04 1134.7 109.952 1133.83 110.732C1132.97 111.512 1131.91 112.13 1130.65 112.586C1129.39 113.03 1127.95 113.252 1126.33 113.252C1125.43 113.252 1124.52 113.168 1123.61 113C1122.7 112.832 1121.82 112.598 1120.96 112.298C1120.12 111.986 1119.33 111.62 1118.59 111.2C1117.86 110.78 1117.21 110.312 1116.64 109.796L1118.44 106.952C1118.59 106.748 1118.77 106.58 1119 106.448C1119.24 106.304 1119.5 106.232 1119.78 106.232C1120.15 106.232 1120.53 106.346 1120.93 106.574C1121.32 106.802 1121.77 107.054 1122.28 107.33C1122.79 107.606 1123.39 107.858 1124.08 108.086C1124.76 108.314 1125.57 108.428 1126.51 108.428C1127.18 108.428 1127.78 108.368 1128.31 108.248C1128.84 108.116 1129.28 107.906 1129.64 107.618C1130.01 107.33 1130.29 106.958 1130.49 106.502C1130.68 106.046 1130.77 105.488 1130.77 104.828C1130.77 104.312 1130.66 103.856 1130.43 103.46C1130.22 103.064 1129.9 102.734 1129.5 102.47C1129.1 102.194 1128.62 101.99 1128.06 101.858C1127.5 101.726 1126.89 101.666 1126.22 101.678H1122.4L1122.39 96.962H1125.72C1127.23 96.962 1128.35 96.71 1129.08 96.206C1129.81 95.69 1130.18 94.946 1130.18 93.974C1130.18 93.146 1129.84 92.492 1129.17 92.012C1128.5 91.52 1127.49 91.274 1126.15 91.274C1125.37 91.274 1124.68 91.364 1124.1 91.544C1123.52 91.712 1123 91.904 1122.55 92.12C1122.1 92.336 1121.71 92.534 1121.36 92.714C1121.02 92.882 1120.71 92.966 1120.42 92.966C1120.11 92.966 1119.85 92.894 1119.65 92.75C1119.46 92.606 1119.27 92.39 1119.09 92.102L1117.58 89.276ZM1153.99 102.974L1151.56 95.792C1151.38 95.336 1151.19 94.802 1150.98 94.19C1150.78 93.566 1150.58 92.894 1150.37 92.174C1150.19 92.906 1150 93.584 1149.8 94.208C1149.59 94.832 1149.4 95.372 1149.22 95.828L1146.81 102.974H1153.99ZM1163.66 113H1158.94C1158.41 113 1157.99 112.88 1157.66 112.64C1157.34 112.388 1157.09 112.07 1156.92 111.686L1155.38 107.114H1145.4L1143.86 111.686C1143.72 112.022 1143.48 112.328 1143.14 112.604C1142.8 112.868 1142.38 113 1141.88 113H1137.12L1147.28 86.774H1153.5L1163.66 113ZM1182.01 91.598H1174.63V113H1168.54V91.598H1161.16V86.774H1182.01V91.598ZM1191.22 91.454V97.574H1199.46V102.074H1191.22V108.32H1201.98V113H1185.1V86.774H1201.98V91.454H1191.22ZM1228.04 113H1221.92V91.292H1216.12C1215.94 94.508 1215.69 97.286 1215.36 99.626C1215.04 101.954 1214.65 103.934 1214.19 105.566C1213.74 107.198 1213.22 108.518 1212.65 109.526C1212.07 110.534 1211.44 111.32 1210.76 111.884C1210.07 112.436 1209.33 112.808 1208.54 113C1207.76 113.192 1206.94 113.288 1206.08 113.288C1205.02 113.288 1204.27 113.192 1203.83 113C1203.38 112.82 1203.16 112.55 1203.16 112.19V108.5H1204.67C1204.94 108.5 1205.21 108.476 1205.5 108.428C1205.79 108.38 1206.08 108.254 1206.38 108.05C1206.68 107.846 1206.98 107.546 1207.26 107.15C1207.56 106.754 1207.85 106.202 1208.11 105.494C1208.39 104.786 1208.64 103.904 1208.88 102.848C1209.14 101.792 1209.36 100.514 1209.55 99.014C1209.75 97.502 1209.93 95.738 1210.07 93.722C1210.22 91.706 1210.32 89.39 1210.38 86.774H1228.04V113ZM1256.02 86.774V113H1249.9V98.312C1249.9 97.628 1249.91 96.908 1249.95 96.152C1250 95.384 1250.08 94.568 1250.2 93.704C1249.93 94.472 1249.63 95.186 1249.3 95.846C1248.98 96.494 1248.66 97.064 1248.35 97.556L1240.37 111.182C1240.24 111.398 1240.08 111.614 1239.89 111.83C1239.71 112.046 1239.5 112.244 1239.28 112.424C1239.05 112.592 1238.8 112.73 1238.54 112.838C1238.27 112.946 1238 113 1237.71 113H1233.12V86.774H1239.24V101.444C1239.24 102.128 1239.22 102.854 1239.19 103.622C1239.15 104.378 1239.07 105.188 1238.93 106.052C1239.21 105.296 1239.51 104.594 1239.83 103.946C1240.16 103.286 1240.48 102.71 1240.79 102.218L1248.76 88.592C1248.89 88.376 1249.05 88.16 1249.23 87.944C1249.42 87.728 1249.63 87.536 1249.86 87.368C1250.09 87.188 1250.33 87.044 1250.6 86.936C1250.86 86.828 1251.14 86.774 1251.43 86.774H1256.02Z" fill="#E74137"/>
<g filter="url(#filter0_b)">
<rect x="391" y="182" width="1183" height="394" fill="#FAFCFF" fill-opacity="0.9"/>
</g>
<line x1="391" y1="480" x2="401" y2="480" stroke="#343753" stroke-width="2"/>
<line x1="391" y1="405" x2="401" y2="405" stroke="#343753" stroke-width="2"/>
<line x1="391" y1="329" x2="401" y2="329" stroke="#343753" stroke-width="2"/>
<line x1="391" y1="255" x2="401" y2="255" stroke="#343753" stroke-width="2"/>
<line x1="391" y1="183" x2="401" y2="183" stroke="#343753" stroke-width="2"/>
<line x1="466" y1="567" x2="466" y2="576" stroke="#343753" stroke-width="2"/>
<line x1="651" y1="567" x2="651" y2="576" stroke="#343753" stroke-width="2"/>
<line x1="836" y1="567" x2="836" y2="576" stroke="#343753" stroke-width="2"/>
<line x1="1021" y1="567" x2="1021" y2="576" stroke="#343753" stroke-width="2"/>
<line x1="1206" y1="567" x2="1206" y2="576" stroke="#343753" stroke-width="2"/>
<line x1="1392" y1="567" x2="1392" y2="576" stroke="#343753" stroke-width="2"/>
<line x1="1573" y1="567" x2="1573" y2="576" stroke="#343753" stroke-width="2"/>
<path d="M1558.56 605.2C1558.89 605.2 1559.15 605.293 1559.35 605.48C1559.54 605.66 1559.64 605.9 1559.64 606.2V608H1549.4V607C1549.4 606.807 1549.44 606.6 1549.52 606.38C1549.6 606.16 1549.74 605.96 1549.94 605.78L1554.14 601.55C1554.5 601.19 1554.81 600.847 1555.08 600.52C1555.34 600.193 1555.56 599.873 1555.74 599.56C1555.91 599.24 1556.04 598.923 1556.13 598.61C1556.21 598.29 1556.26 597.953 1556.26 597.6C1556.26 597.02 1556.12 596.577 1555.84 596.27C1555.56 595.957 1555.14 595.8 1554.58 595.8C1554.12 595.8 1553.73 595.923 1553.41 596.17C1553.09 596.41 1552.88 596.71 1552.76 597.07C1552.62 597.437 1552.43 597.68 1552.21 597.8C1551.98 597.92 1551.66 597.947 1551.24 597.88L1549.6 597.59C1549.7 596.863 1549.91 596.23 1550.21 595.69C1550.51 595.15 1550.89 594.7 1551.34 594.34C1551.79 593.98 1552.31 593.713 1552.89 593.54C1553.47 593.36 1554.09 593.27 1554.76 593.27C1555.48 593.27 1556.12 593.377 1556.7 593.59C1557.28 593.797 1557.77 594.087 1558.18 594.46C1558.58 594.833 1558.89 595.28 1559.11 595.8C1559.33 596.313 1559.44 596.88 1559.44 597.5C1559.44 598.033 1559.36 598.527 1559.21 598.98C1559.06 599.433 1558.86 599.867 1558.6 600.28C1558.34 600.687 1558.03 601.083 1557.69 601.47C1557.35 601.85 1556.98 602.237 1556.6 602.63L1553.75 605.55C1554.11 605.437 1554.48 605.35 1554.84 605.29C1555.2 605.23 1555.53 605.2 1555.84 605.2H1558.56ZM1571.6 600.71C1571.6 601.983 1571.46 603.087 1571.19 604.02C1570.92 604.953 1570.54 605.727 1570.05 606.34C1569.57 606.953 1569 607.41 1568.33 607.71C1567.67 608.01 1566.95 608.16 1566.18 608.16C1565.41 608.16 1564.69 608.01 1564.03 607.71C1563.38 607.41 1562.81 606.953 1562.33 606.34C1561.85 605.727 1561.47 604.953 1561.2 604.02C1560.93 603.087 1560.8 601.983 1560.8 600.71C1560.8 599.437 1560.93 598.333 1561.2 597.4C1561.47 596.467 1561.85 595.693 1562.33 595.08C1562.81 594.467 1563.38 594.013 1564.03 593.72C1564.69 593.42 1565.41 593.27 1566.18 593.27C1566.95 593.27 1567.67 593.42 1568.33 593.72C1569 594.013 1569.57 594.467 1570.05 595.08C1570.54 595.693 1570.92 596.467 1571.19 597.4C1571.46 598.333 1571.6 599.437 1571.6 600.71ZM1568.4 600.71C1568.4 599.703 1568.34 598.88 1568.21 598.24C1568.08 597.593 1567.91 597.087 1567.7 596.72C1567.49 596.353 1567.26 596.103 1566.99 595.97C1566.72 595.83 1566.45 595.76 1566.18 595.76C1565.91 595.76 1565.64 595.83 1565.37 595.97C1565.11 596.103 1564.88 596.353 1564.67 596.72C1564.47 597.087 1564.31 597.593 1564.18 598.24C1564.06 598.88 1564 599.703 1564 600.71C1564 601.723 1564.06 602.55 1564.18 603.19C1564.31 603.83 1564.47 604.337 1564.67 604.71C1564.88 605.077 1565.11 605.33 1565.37 605.47C1565.64 605.603 1565.91 605.67 1566.18 605.67C1566.45 605.67 1566.72 605.603 1566.99 605.47C1567.26 605.33 1567.49 605.077 1567.7 604.71C1567.91 604.337 1568.08 603.83 1568.21 603.19C1568.34 602.55 1568.4 601.723 1568.4 600.71ZM1581.76 605.2C1582.09 605.2 1582.36 605.293 1582.55 605.48C1582.74 605.66 1582.84 605.9 1582.84 606.2V608H1572.6V607C1572.6 606.807 1572.64 606.6 1572.72 606.38C1572.8 606.16 1572.94 605.96 1573.14 605.78L1577.34 601.55C1577.7 601.19 1578.01 600.847 1578.28 600.52C1578.55 600.193 1578.77 599.873 1578.94 599.56C1579.11 599.24 1579.24 598.923 1579.33 598.61C1579.42 598.29 1579.46 597.953 1579.46 597.6C1579.46 597.02 1579.32 596.577 1579.04 596.27C1578.77 595.957 1578.35 595.8 1577.78 595.8C1577.32 595.8 1576.93 595.923 1576.61 596.17C1576.3 596.41 1576.08 596.71 1575.96 597.07C1575.82 597.437 1575.64 597.68 1575.41 597.8C1575.18 597.92 1574.86 597.947 1574.44 597.88L1572.8 597.59C1572.91 596.863 1573.11 596.23 1573.41 595.69C1573.72 595.15 1574.09 594.7 1574.54 594.34C1574.99 593.98 1575.51 593.713 1576.09 593.54C1576.67 593.36 1577.29 593.27 1577.96 593.27C1578.68 593.27 1579.33 593.377 1579.9 593.59C1580.48 593.797 1580.97 594.087 1581.38 594.46C1581.79 594.833 1582.1 595.28 1582.31 595.8C1582.53 596.313 1582.64 596.88 1582.64 597.5C1582.64 598.033 1582.56 598.527 1582.41 598.98C1582.26 599.433 1582.06 599.867 1581.8 600.28C1581.54 600.687 1581.24 601.083 1580.89 601.47C1580.55 601.85 1580.19 602.237 1579.8 602.63L1576.95 605.55C1577.32 605.437 1577.68 605.35 1578.04 605.29C1578.4 605.23 1578.73 605.2 1579.04 605.2H1581.76ZM1594.8 600.71C1594.8 601.983 1594.66 603.087 1594.39 604.02C1594.12 604.953 1593.74 605.727 1593.25 606.34C1592.77 606.953 1592.2 607.41 1591.53 607.71C1590.87 608.01 1590.15 608.16 1589.38 608.16C1588.61 608.16 1587.89 608.01 1587.23 607.71C1586.58 607.41 1586.01 606.953 1585.53 606.34C1585.05 605.727 1584.67 604.953 1584.4 604.02C1584.13 603.087 1584 601.983 1584 600.71C1584 599.437 1584.13 598.333 1584.4 597.4C1584.67 596.467 1585.05 595.693 1585.53 595.08C1586.01 594.467 1586.58 594.013 1587.23 593.72C1587.89 593.42 1588.61 593.27 1589.38 593.27C1590.15 593.27 1590.87 593.42 1591.53 593.72C1592.2 594.013 1592.77 594.467 1593.25 595.08C1593.74 595.693 1594.12 596.467 1594.39 597.4C1594.66 598.333 1594.8 599.437 1594.8 600.71ZM1591.6 600.71C1591.6 599.703 1591.54 598.88 1591.41 598.24C1591.28 597.593 1591.11 597.087 1590.9 596.72C1590.69 596.353 1590.46 596.103 1590.19 595.97C1589.92 595.83 1589.65 595.76 1589.38 595.76C1589.11 595.76 1588.84 595.83 1588.57 595.97C1588.31 596.103 1588.08 596.353 1587.87 596.72C1587.67 597.087 1587.51 597.593 1587.38 598.24C1587.26 598.88 1587.2 599.703 1587.2 600.71C1587.2 601.723 1587.26 602.55 1587.38 603.19C1587.51 603.83 1587.67 604.337 1587.87 604.71C1588.08 605.077 1588.31 605.33 1588.57 605.47C1588.84 605.603 1589.11 605.67 1589.38 605.67C1589.65 605.67 1589.92 605.603 1590.19 605.47C1590.46 605.33 1590.69 605.077 1590.9 604.71C1591.11 604.337 1591.28 603.83 1591.41 603.19C1591.54 602.55 1591.6 601.723 1591.6 600.71Z" fill="black"/>
<path d="M1377.06 605.2C1377.39 605.2 1377.65 605.293 1377.85 605.48C1378.04 605.66 1378.14 605.9 1378.14 606.2V608H1367.9V607C1367.9 606.807 1367.94 606.6 1368.02 606.38C1368.1 606.16 1368.24 605.96 1368.44 605.78L1372.64 601.55C1373 601.19 1373.31 600.847 1373.58 600.52C1373.84 600.193 1374.06 599.873 1374.24 599.56C1374.41 599.24 1374.54 598.923 1374.63 598.61C1374.71 598.29 1374.76 597.953 1374.76 597.6C1374.76 597.02 1374.62 596.577 1374.34 596.27C1374.06 595.957 1373.64 595.8 1373.08 595.8C1372.62 595.8 1372.23 595.923 1371.91 596.17C1371.59 596.41 1371.38 596.71 1371.26 597.07C1371.12 597.437 1370.93 597.68 1370.71 597.8C1370.48 597.92 1370.16 597.947 1369.74 597.88L1368.1 597.59C1368.2 596.863 1368.41 596.23 1368.71 595.69C1369.01 595.15 1369.39 594.7 1369.84 594.34C1370.29 593.98 1370.81 593.713 1371.39 593.54C1371.97 593.36 1372.59 593.27 1373.26 593.27C1373.98 593.27 1374.62 593.377 1375.2 593.59C1375.78 593.797 1376.27 594.087 1376.68 594.46C1377.08 594.833 1377.39 595.28 1377.61 595.8C1377.83 596.313 1377.94 596.88 1377.94 597.5C1377.94 598.033 1377.86 598.527 1377.71 598.98C1377.56 599.433 1377.36 599.867 1377.1 600.28C1376.84 600.687 1376.53 601.083 1376.19 601.47C1375.85 601.85 1375.48 602.237 1375.1 602.63L1372.25 605.55C1372.61 605.437 1372.98 605.35 1373.34 605.29C1373.7 605.23 1374.03 605.2 1374.34 605.2H1377.06ZM1390.1 600.71C1390.1 601.983 1389.96 603.087 1389.69 604.02C1389.42 604.953 1389.04 605.727 1388.55 606.34C1388.07 606.953 1387.5 607.41 1386.83 607.71C1386.17 608.01 1385.45 608.16 1384.68 608.16C1383.91 608.16 1383.19 608.01 1382.53 607.71C1381.88 607.41 1381.31 606.953 1380.83 606.34C1380.35 605.727 1379.97 604.953 1379.7 604.02C1379.43 603.087 1379.3 601.983 1379.3 600.71C1379.3 599.437 1379.43 598.333 1379.7 597.4C1379.97 596.467 1380.35 595.693 1380.83 595.08C1381.31 594.467 1381.88 594.013 1382.53 593.72C1383.19 593.42 1383.91 593.27 1384.68 593.27C1385.45 593.27 1386.17 593.42 1386.83 593.72C1387.5 594.013 1388.07 594.467 1388.55 595.08C1389.04 595.693 1389.42 596.467 1389.69 597.4C1389.96 598.333 1390.1 599.437 1390.1 600.71ZM1386.9 600.71C1386.9 599.703 1386.84 598.88 1386.71 598.24C1386.58 597.593 1386.41 597.087 1386.2 596.72C1385.99 596.353 1385.76 596.103 1385.49 595.97C1385.22 595.83 1384.95 595.76 1384.68 595.76C1384.41 595.76 1384.14 595.83 1383.87 595.97C1383.61 596.103 1383.38 596.353 1383.17 596.72C1382.97 597.087 1382.81 597.593 1382.68 598.24C1382.56 598.88 1382.5 599.703 1382.5 600.71C1382.5 601.723 1382.56 602.55 1382.68 603.19C1382.81 603.83 1382.97 604.337 1383.17 604.71C1383.38 605.077 1383.61 605.33 1383.87 605.47C1384.14 605.603 1384.41 605.67 1384.68 605.67C1384.95 605.67 1385.22 605.603 1385.49 605.47C1385.76 605.33 1385.99 605.077 1386.2 604.71C1386.41 604.337 1386.58 603.83 1386.71 603.19C1386.84 602.55 1386.9 601.723 1386.9 600.71ZM1401.01 605.76V608H1392.71V605.76H1395.51V598.41C1395.51 598.223 1395.51 598.037 1395.52 597.85C1395.53 597.657 1395.54 597.463 1395.55 597.27L1393.89 598.65C1393.74 598.763 1393.6 598.833 1393.45 598.86C1393.31 598.88 1393.18 598.88 1393.05 598.86C1392.92 598.833 1392.81 598.79 1392.71 598.73C1392.61 598.663 1392.54 598.597 1392.49 598.53L1391.51 597.23L1396.05 593.42H1398.61V605.76H1401.01ZM1413.3 600.71C1413.3 601.983 1413.16 603.087 1412.89 604.02C1412.62 604.953 1412.24 605.727 1411.75 606.34C1411.27 606.953 1410.7 607.41 1410.03 607.71C1409.37 608.01 1408.65 608.16 1407.88 608.16C1407.11 608.16 1406.39 608.01 1405.73 607.71C1405.08 607.41 1404.51 606.953 1404.03 606.34C1403.55 605.727 1403.17 604.953 1402.9 604.02C1402.63 603.087 1402.5 601.983 1402.5 600.71C1402.5 599.437 1402.63 598.333 1402.9 597.4C1403.17 596.467 1403.55 595.693 1404.03 595.08C1404.51 594.467 1405.08 594.013 1405.73 593.72C1406.39 593.42 1407.11 593.27 1407.88 593.27C1408.65 593.27 1409.37 593.42 1410.03 593.72C1410.7 594.013 1411.27 594.467 1411.75 595.08C1412.24 595.693 1412.62 596.467 1412.89 597.4C1413.16 598.333 1413.3 599.437 1413.3 600.71ZM1410.1 600.71C1410.1 599.703 1410.04 598.88 1409.91 598.24C1409.78 597.593 1409.61 597.087 1409.4 596.72C1409.19 596.353 1408.96 596.103 1408.69 595.97C1408.42 595.83 1408.15 595.76 1407.88 595.76C1407.61 595.76 1407.34 595.83 1407.07 595.97C1406.81 596.103 1406.58 596.353 1406.37 596.72C1406.17 597.087 1406.01 597.593 1405.88 598.24C1405.76 598.88 1405.7 599.703 1405.7 600.71C1405.7 601.723 1405.76 602.55 1405.88 603.19C1406.01 603.83 1406.17 604.337 1406.37 604.71C1406.58 605.077 1406.81 605.33 1407.07 605.47C1407.34 605.603 1407.61 605.67 1407.88 605.67C1408.15 605.67 1408.42 605.603 1408.69 605.47C1408.96 605.33 1409.19 605.077 1409.4 604.71C1409.61 604.337 1409.78 603.83 1409.91 603.19C1410.04 602.55 1410.1 601.723 1410.1 600.71Z" fill="black"/>
<path d="M1191.06 606.2C1191.39 606.2 1191.65 606.293 1191.85 606.48C1192.04 606.66 1192.14 606.9 1192.14 607.2V609H1181.9V608C1181.9 607.807 1181.94 607.6 1182.02 607.38C1182.1 607.16 1182.24 606.96 1182.44 606.78L1186.64 602.55C1187 602.19 1187.31 601.847 1187.58 601.52C1187.84 601.193 1188.06 600.873 1188.24 600.56C1188.41 600.24 1188.54 599.923 1188.63 599.61C1188.71 599.29 1188.76 598.953 1188.76 598.6C1188.76 598.02 1188.62 597.577 1188.34 597.27C1188.06 596.957 1187.64 596.8 1187.08 596.8C1186.62 596.8 1186.23 596.923 1185.91 597.17C1185.59 597.41 1185.38 597.71 1185.26 598.07C1185.12 598.437 1184.93 598.68 1184.71 598.8C1184.48 598.92 1184.16 598.947 1183.74 598.88L1182.1 598.59C1182.2 597.863 1182.41 597.23 1182.71 596.69C1183.01 596.15 1183.39 595.7 1183.84 595.34C1184.29 594.98 1184.81 594.713 1185.39 594.54C1185.97 594.36 1186.59 594.27 1187.26 594.27C1187.98 594.27 1188.62 594.377 1189.2 594.59C1189.78 594.797 1190.27 595.087 1190.68 595.46C1191.08 595.833 1191.39 596.28 1191.61 596.8C1191.83 597.313 1191.94 597.88 1191.94 598.5C1191.94 599.033 1191.86 599.527 1191.71 599.98C1191.56 600.433 1191.36 600.867 1191.1 601.28C1190.84 601.687 1190.53 602.083 1190.19 602.47C1189.85 602.85 1189.48 603.237 1189.1 603.63L1186.25 606.55C1186.61 606.437 1186.98 606.35 1187.34 606.29C1187.7 606.23 1188.03 606.2 1188.34 606.2H1191.06ZM1204.1 601.71C1204.1 602.983 1203.96 604.087 1203.69 605.02C1203.42 605.953 1203.04 606.727 1202.55 607.34C1202.07 607.953 1201.5 608.41 1200.83 608.71C1200.17 609.01 1199.45 609.16 1198.68 609.16C1197.91 609.16 1197.19 609.01 1196.53 608.71C1195.88 608.41 1195.31 607.953 1194.83 607.34C1194.35 606.727 1193.97 605.953 1193.7 605.02C1193.43 604.087 1193.3 602.983 1193.3 601.71C1193.3 600.437 1193.43 599.333 1193.7 598.4C1193.97 597.467 1194.35 596.693 1194.83 596.08C1195.31 595.467 1195.88 595.013 1196.53 594.72C1197.19 594.42 1197.91 594.27 1198.68 594.27C1199.45 594.27 1200.17 594.42 1200.83 594.72C1201.5 595.013 1202.07 595.467 1202.55 596.08C1203.04 596.693 1203.42 597.467 1203.69 598.4C1203.96 599.333 1204.1 600.437 1204.1 601.71ZM1200.9 601.71C1200.9 600.703 1200.84 599.88 1200.71 599.24C1200.58 598.593 1200.41 598.087 1200.2 597.72C1199.99 597.353 1199.76 597.103 1199.49 596.97C1199.22 596.83 1198.95 596.76 1198.68 596.76C1198.41 596.76 1198.14 596.83 1197.87 596.97C1197.61 597.103 1197.38 597.353 1197.17 597.72C1196.97 598.087 1196.81 598.593 1196.68 599.24C1196.56 599.88 1196.5 600.703 1196.5 601.71C1196.5 602.723 1196.56 603.55 1196.68 604.19C1196.81 604.83 1196.97 605.337 1197.17 605.71C1197.38 606.077 1197.61 606.33 1197.87 606.47C1198.14 606.603 1198.41 606.67 1198.68 606.67C1198.95 606.67 1199.22 606.603 1199.49 606.47C1199.76 606.33 1199.99 606.077 1200.2 605.71C1200.41 605.337 1200.58 604.83 1200.71 604.19C1200.84 603.55 1200.9 602.723 1200.9 601.71ZM1215.7 601.71C1215.7 602.983 1215.56 604.087 1215.29 605.02C1215.02 605.953 1214.64 606.727 1214.15 607.34C1213.67 607.953 1213.1 608.41 1212.43 608.71C1211.77 609.01 1211.05 609.16 1210.28 609.16C1209.51 609.16 1208.79 609.01 1208.13 608.71C1207.48 608.41 1206.91 607.953 1206.43 607.34C1205.95 606.727 1205.57 605.953 1205.3 605.02C1205.03 604.087 1204.9 602.983 1204.9 601.71C1204.9 600.437 1205.03 599.333 1205.3 598.4C1205.57 597.467 1205.95 596.693 1206.43 596.08C1206.91 595.467 1207.48 595.013 1208.13 594.72C1208.79 594.42 1209.51 594.27 1210.28 594.27C1211.05 594.27 1211.77 594.42 1212.43 594.72C1213.1 595.013 1213.67 595.467 1214.15 596.08C1214.64 596.693 1215.02 597.467 1215.29 598.4C1215.56 599.333 1215.7 600.437 1215.7 601.71ZM1212.5 601.71C1212.5 600.703 1212.44 599.88 1212.31 599.24C1212.18 598.593 1212.01 598.087 1211.8 597.72C1211.59 597.353 1211.36 597.103 1211.09 596.97C1210.82 596.83 1210.55 596.76 1210.28 596.76C1210.01 596.76 1209.74 596.83 1209.47 596.97C1209.21 597.103 1208.98 597.353 1208.77 597.72C1208.57 598.087 1208.41 598.593 1208.28 599.24C1208.16 599.88 1208.1 600.703 1208.1 601.71C1208.1 602.723 1208.16 603.55 1208.28 604.19C1208.41 604.83 1208.57 605.337 1208.77 605.71C1208.98 606.077 1209.21 606.33 1209.47 606.47C1209.74 606.603 1210.01 606.67 1210.28 606.67C1210.55 606.67 1210.82 606.603 1211.09 606.47C1211.36 606.33 1211.59 606.077 1211.8 605.71C1212.01 605.337 1212.18 604.83 1212.31 604.19C1212.44 603.55 1212.5 602.723 1212.5 601.71ZM1227.3 601.71C1227.3 602.983 1227.16 604.087 1226.89 605.02C1226.62 605.953 1226.24 606.727 1225.75 607.34C1225.27 607.953 1224.7 608.41 1224.03 608.71C1223.37 609.01 1222.65 609.16 1221.88 609.16C1221.11 609.16 1220.39 609.01 1219.73 608.71C1219.08 608.41 1218.51 607.953 1218.03 607.34C1217.55 606.727 1217.17 605.953 1216.9 605.02C1216.63 604.087 1216.5 602.983 1216.5 601.71C1216.5 600.437 1216.63 599.333 1216.9 598.4C1217.17 597.467 1217.55 596.693 1218.03 596.08C1218.51 595.467 1219.08 595.013 1219.73 594.72C1220.39 594.42 1221.11 594.27 1221.88 594.27C1222.65 594.27 1223.37 594.42 1224.03 594.72C1224.7 595.013 1225.27 595.467 1225.75 596.08C1226.24 596.693 1226.62 597.467 1226.89 598.4C1227.16 599.333 1227.3 600.437 1227.3 601.71ZM1224.1 601.71C1224.1 600.703 1224.04 599.88 1223.91 599.24C1223.78 598.593 1223.61 598.087 1223.4 597.72C1223.19 597.353 1222.96 597.103 1222.69 596.97C1222.42 596.83 1222.15 596.76 1221.88 596.76C1221.61 596.76 1221.34 596.83 1221.07 596.97C1220.81 597.103 1220.58 597.353 1220.37 597.72C1220.17 598.087 1220.01 598.593 1219.88 599.24C1219.76 599.88 1219.7 600.703 1219.7 601.71C1219.7 602.723 1219.76 603.55 1219.88 604.19C1220.01 604.83 1220.17 605.337 1220.37 605.71C1220.58 606.077 1220.81 606.33 1221.07 606.47C1221.34 606.603 1221.61 606.67 1221.88 606.67C1222.15 606.67 1222.42 606.603 1222.69 606.47C1222.96 606.33 1223.19 606.077 1223.4 605.71C1223.61 605.337 1223.78 604.83 1223.91 604.19C1224.04 603.55 1224.1 602.723 1224.1 601.71Z" fill="black"/>
<path d="M1007.31 606.76V609H999.007V606.76H1001.81V599.41C1001.81 599.223 1001.81 599.037 1001.82 598.85C1001.82 598.657 1001.83 598.463 1001.85 598.27L1000.19 599.65C1000.04 599.763 999.894 599.833 999.747 599.86C999.607 599.88 999.474 599.88 999.347 599.86C999.22 599.833 999.107 599.79 999.007 599.73C998.907 599.663 998.834 599.597 998.787 599.53L997.807 598.23L1002.35 594.42H1004.91V606.76H1007.31ZM1012.13 598.88C1012.13 600.333 1012.8 601.06 1014.15 601.06C1014.81 601.06 1015.32 600.863 1015.67 600.47C1016.03 600.07 1016.21 599.54 1016.21 598.88C1016.21 598.527 1016.16 598.217 1016.05 597.95C1015.95 597.677 1015.81 597.45 1015.62 597.27C1015.44 597.09 1015.22 596.953 1014.96 596.86C1014.7 596.767 1014.42 596.72 1014.11 596.72C1013.8 596.72 1013.52 596.777 1013.27 596.89C1013.03 596.997 1012.82 597.147 1012.65 597.34C1012.48 597.533 1012.35 597.763 1012.26 598.03C1012.17 598.29 1012.13 598.573 1012.13 598.88ZM1014.61 603.48C1014.7 603.367 1014.79 603.257 1014.88 603.15C1014.97 603.043 1015.05 602.937 1015.12 602.83C1014.51 603.157 1013.81 603.32 1013.03 603.32C1012.56 603.32 1012.08 603.237 1011.61 603.07C1011.14 602.897 1010.71 602.637 1010.32 602.29C1009.94 601.943 1009.63 601.507 1009.39 600.98C1009.15 600.453 1009.03 599.83 1009.03 599.11C1009.03 598.45 1009.15 597.827 1009.39 597.24C1009.64 596.653 1009.98 596.14 1010.43 595.7C1010.88 595.26 1011.42 594.913 1012.05 594.66C1012.68 594.4 1013.38 594.27 1014.15 594.27C1014.94 594.27 1015.64 594.39 1016.26 594.63C1016.88 594.87 1017.4 595.207 1017.83 595.64C1018.26 596.073 1018.59 596.59 1018.82 597.19C1019.05 597.783 1019.17 598.44 1019.17 599.16C1019.17 600.113 1019.03 600.967 1018.74 601.72C1018.45 602.473 1018.07 603.183 1017.59 603.85L1014.45 608.31C1014.31 608.503 1014.1 608.667 1013.81 608.8C1013.53 608.933 1013.21 609 1012.85 609H1009.99L1014.61 603.48ZM1023.73 598.88C1023.73 600.333 1024.4 601.06 1025.75 601.06C1026.41 601.06 1026.92 600.863 1027.27 600.47C1027.63 600.07 1027.81 599.54 1027.81 598.88C1027.81 598.527 1027.76 598.217 1027.65 597.95C1027.55 597.677 1027.41 597.45 1027.22 597.27C1027.04 597.09 1026.82 596.953 1026.56 596.86C1026.3 596.767 1026.02 596.72 1025.71 596.72C1025.4 596.72 1025.12 596.777 1024.87 596.89C1024.63 596.997 1024.42 597.147 1024.25 597.34C1024.08 597.533 1023.95 597.763 1023.86 598.03C1023.77 598.29 1023.73 598.573 1023.73 598.88ZM1026.21 603.48C1026.3 603.367 1026.39 603.257 1026.48 603.15C1026.57 603.043 1026.65 602.937 1026.72 602.83C1026.11 603.157 1025.41 603.32 1024.63 603.32C1024.16 603.32 1023.68 603.237 1023.21 603.07C1022.74 602.897 1022.31 602.637 1021.92 602.29C1021.54 601.943 1021.23 601.507 1020.99 600.98C1020.75 600.453 1020.63 599.83 1020.63 599.11C1020.63 598.45 1020.75 597.827 1020.99 597.24C1021.24 596.653 1021.58 596.14 1022.03 595.7C1022.48 595.26 1023.02 594.913 1023.65 594.66C1024.28 594.4 1024.98 594.27 1025.75 594.27C1026.54 594.27 1027.24 594.39 1027.86 594.63C1028.48 594.87 1029 595.207 1029.43 595.64C1029.86 596.073 1030.19 596.59 1030.42 597.19C1030.65 597.783 1030.77 598.44 1030.77 599.16C1030.77 600.113 1030.63 600.967 1030.34 601.72C1030.05 602.473 1029.67 603.183 1029.19 603.85L1026.05 608.31C1025.91 608.503 1025.7 608.667 1025.41 608.8C1025.13 608.933 1024.81 609 1024.45 609H1021.59L1026.21 603.48ZM1042.8 601.71C1042.8 602.983 1042.66 604.087 1042.39 605.02C1042.12 605.953 1041.74 606.727 1041.25 607.34C1040.77 607.953 1040.2 608.41 1039.53 608.71C1038.87 609.01 1038.15 609.16 1037.38 609.16C1036.61 609.16 1035.89 609.01 1035.23 608.71C1034.58 608.41 1034.01 607.953 1033.53 607.34C1033.05 606.727 1032.67 605.953 1032.4 605.02C1032.13 604.087 1032 602.983 1032 601.71C1032 600.437 1032.13 599.333 1032.4 598.4C1032.67 597.467 1033.05 596.693 1033.53 596.08C1034.01 595.467 1034.58 595.013 1035.23 594.72C1035.89 594.42 1036.61 594.27 1037.38 594.27C1038.15 594.27 1038.87 594.42 1039.53 594.72C1040.2 595.013 1040.77 595.467 1041.25 596.08C1041.74 596.693 1042.12 597.467 1042.39 598.4C1042.66 599.333 1042.8 600.437 1042.8 601.71ZM1039.6 601.71C1039.6 600.703 1039.54 599.88 1039.41 599.24C1039.28 598.593 1039.11 598.087 1038.9 597.72C1038.69 597.353 1038.46 597.103 1038.19 596.97C1037.92 596.83 1037.65 596.76 1037.38 596.76C1037.11 596.76 1036.84 596.83 1036.57 596.97C1036.31 597.103 1036.08 597.353 1035.87 597.72C1035.67 598.087 1035.51 598.593 1035.38 599.24C1035.26 599.88 1035.2 600.703 1035.2 601.71C1035.2 602.723 1035.26 603.55 1035.38 604.19C1035.51 604.83 1035.67 605.337 1035.87 605.71C1036.08 606.077 1036.31 606.33 1036.57 606.47C1036.84 606.603 1037.11 606.67 1037.38 606.67C1037.65 606.67 1037.92 606.603 1038.19 606.47C1038.46 606.33 1038.69 606.077 1038.9 605.71C1039.11 605.337 1039.28 604.83 1039.41 604.19C1039.54 603.55 1039.6 602.723 1039.6 601.71Z" fill="black"/>
<path d="M822.307 606.76V609H814.007V606.76H816.807V599.41C816.807 599.223 816.81 599.037 816.817 598.85C816.824 598.657 816.834 598.463 816.847 598.27L815.187 599.65C815.04 599.763 814.894 599.833 814.747 599.86C814.607 599.88 814.474 599.88 814.347 599.86C814.22 599.833 814.107 599.79 814.007 599.73C813.907 599.663 813.834 599.597 813.787 599.53L812.807 598.23L817.347 594.42H819.907V606.76H822.307ZM827.128 598.88C827.128 600.333 827.802 601.06 829.148 601.06C829.808 601.06 830.315 600.863 830.668 600.47C831.028 600.07 831.208 599.54 831.208 598.88C831.208 598.527 831.155 598.217 831.048 597.95C830.948 597.677 830.805 597.45 830.618 597.27C830.438 597.09 830.218 596.953 829.958 596.86C829.698 596.767 829.415 596.72 829.108 596.72C828.795 596.72 828.515 596.777 828.268 596.89C828.028 596.997 827.822 597.147 827.648 597.34C827.482 597.533 827.352 597.763 827.258 598.03C827.172 598.29 827.128 598.573 827.128 598.88ZM829.608 603.48C829.702 603.367 829.792 603.257 829.878 603.15C829.965 603.043 830.045 602.937 830.118 602.83C829.505 603.157 828.808 603.32 828.028 603.32C827.555 603.32 827.082 603.237 826.608 603.07C826.135 602.897 825.705 602.637 825.318 602.29C824.938 601.943 824.628 601.507 824.388 600.98C824.148 600.453 824.028 599.83 824.028 599.11C824.028 598.45 824.148 597.827 824.388 597.24C824.635 596.653 824.982 596.14 825.428 595.7C825.882 595.26 826.422 594.913 827.048 594.66C827.675 594.4 828.375 594.27 829.148 594.27C829.935 594.27 830.638 594.39 831.258 594.63C831.878 594.87 832.402 595.207 832.828 595.64C833.262 596.073 833.592 596.59 833.818 597.19C834.052 597.783 834.168 598.44 834.168 599.16C834.168 600.113 834.025 600.967 833.738 601.72C833.452 602.473 833.068 603.183 832.588 603.85L829.448 608.31C829.308 608.503 829.095 608.667 828.808 608.8C828.528 608.933 828.208 609 827.848 609H824.988L829.608 603.48ZM840.8 606.82C841.147 606.82 841.447 606.767 841.7 606.66C841.953 606.553 842.16 606.41 842.32 606.23C842.487 606.043 842.607 605.827 842.68 605.58C842.76 605.327 842.8 605.057 842.8 604.77C842.8 604.457 842.767 604.17 842.7 603.91C842.633 603.65 842.523 603.43 842.37 603.25C842.217 603.063 842.01 602.92 841.75 602.82C841.497 602.713 841.18 602.66 840.8 602.66C840.42 602.66 840.1 602.713 839.84 602.82C839.587 602.92 839.383 603.063 839.23 603.25C839.077 603.43 838.967 603.65 838.9 603.91C838.833 604.17 838.8 604.457 838.8 604.77C838.8 605.057 838.837 605.327 838.91 605.58C838.99 605.827 839.11 606.043 839.27 606.23C839.437 606.41 839.643 606.553 839.89 606.66C840.143 606.767 840.447 606.82 840.8 606.82ZM840.8 596.53C840.487 596.53 840.223 596.58 840.01 596.68C839.797 596.78 839.62 596.913 839.48 597.08C839.347 597.24 839.25 597.427 839.19 597.64C839.13 597.853 839.1 598.073 839.1 598.3C839.1 598.553 839.123 598.8 839.17 599.04C839.217 599.28 839.303 599.493 839.43 599.68C839.557 599.867 839.73 600.017 839.95 600.13C840.17 600.243 840.453 600.3 840.8 600.3C841.147 600.3 841.43 600.243 841.65 600.13C841.87 600.017 842.043 599.867 842.17 599.68C842.297 599.493 842.383 599.28 842.43 599.04C842.477 598.8 842.5 598.553 842.5 598.3C842.5 598.073 842.47 597.853 842.41 597.64C842.35 597.427 842.25 597.24 842.11 597.08C841.977 596.913 841.8 596.78 841.58 596.68C841.367 596.58 841.107 596.53 840.8 596.53ZM843.55 601.4C843.983 601.553 844.353 601.743 844.66 601.97C844.973 602.197 845.227 602.457 845.42 602.75C845.62 603.043 845.767 603.367 845.86 603.72C845.953 604.067 846 604.437 846 604.83C846 605.483 845.873 606.077 845.62 606.61C845.373 607.143 845.02 607.6 844.56 607.98C844.107 608.353 843.56 608.643 842.92 608.85C842.28 609.057 841.573 609.16 840.8 609.16C840.027 609.16 839.32 609.057 838.68 608.85C838.04 608.643 837.49 608.353 837.03 607.98C836.577 607.6 836.223 607.143 835.97 606.61C835.723 606.077 835.6 605.483 835.6 604.83C835.6 604.437 835.647 604.067 835.74 603.72C835.833 603.367 835.977 603.043 836.17 602.75C836.37 602.457 836.623 602.197 836.93 601.97C837.243 601.743 837.617 601.553 838.05 601.4C837.39 601.1 836.897 600.687 836.57 600.16C836.243 599.627 836.08 598.987 836.08 598.24C836.08 597.673 836.197 597.15 836.43 596.67C836.663 596.183 836.99 595.763 837.41 595.41C837.83 595.057 838.327 594.78 838.9 594.58C839.48 594.373 840.113 594.27 840.8 594.27C841.487 594.27 842.117 594.373 842.69 594.58C843.27 594.78 843.77 595.057 844.19 595.41C844.61 595.763 844.937 596.183 845.17 596.67C845.403 597.15 845.52 597.673 845.52 598.24C845.52 598.987 845.357 599.627 845.03 600.16C844.703 600.687 844.21 601.1 843.55 601.4ZM857.802 601.71C857.802 602.983 857.665 604.087 857.392 605.02C857.118 605.953 856.738 606.727 856.252 607.34C855.772 607.953 855.198 608.41 854.532 608.71C853.872 609.01 853.155 609.16 852.382 609.16C851.608 609.16 850.892 609.01 850.232 608.71C849.578 608.41 849.012 607.953 848.532 607.34C848.052 606.727 847.675 605.953 847.402 605.02C847.135 604.087 847.002 602.983 847.002 601.71C847.002 600.437 847.135 599.333 847.402 598.4C847.675 597.467 848.052 596.693 848.532 596.08C849.012 595.467 849.578 595.013 850.232 594.72C850.892 594.42 851.608 594.27 852.382 594.27C853.155 594.27 853.872 594.42 854.532 594.72C855.198 595.013 855.772 595.467 856.252 596.08C856.738 596.693 857.118 597.467 857.392 598.4C857.665 599.333 857.802 600.437 857.802 601.71ZM854.602 601.71C854.602 600.703 854.538 599.88 854.412 599.24C854.285 598.593 854.115 598.087 853.902 597.72C853.695 597.353 853.458 597.103 853.192 596.97C852.925 596.83 852.655 596.76 852.382 596.76C852.108 596.76 851.838 596.83 851.572 596.97C851.312 597.103 851.078 597.353 850.872 597.72C850.672 598.087 850.508 598.593 850.382 599.24C850.262 599.88 850.202 600.703 850.202 601.71C850.202 602.723 850.262 603.55 850.382 604.19C850.508 604.83 850.672 605.337 850.872 605.71C851.078 606.077 851.312 606.33 851.572 606.47C851.838 606.603 852.108 606.67 852.382 606.67C852.655 606.67 852.925 606.603 853.192 606.47C853.458 606.33 853.695 606.077 853.902 605.71C854.115 605.337 854.285 604.83 854.412 604.19C854.538 603.55 854.602 602.723 854.602 601.71Z" fill="black"/>
<path d="M636.807 606.76V609H628.507V606.76H631.307V599.41C631.307 599.223 631.31 599.037 631.317 598.85C631.324 598.657 631.334 598.463 631.347 598.27L629.687 599.65C629.54 599.763 629.394 599.833 629.247 599.86C629.107 599.88 628.974 599.88 628.847 599.86C628.72 599.833 628.607 599.79 628.507 599.73C628.407 599.663 628.334 599.597 628.287 599.53L627.307 598.23L631.847 594.42H634.407V606.76H636.807ZM641.628 598.88C641.628 600.333 642.302 601.06 643.648 601.06C644.308 601.06 644.815 600.863 645.168 600.47C645.528 600.07 645.708 599.54 645.708 598.88C645.708 598.527 645.655 598.217 645.548 597.95C645.448 597.677 645.305 597.45 645.118 597.27C644.938 597.09 644.718 596.953 644.458 596.86C644.198 596.767 643.915 596.72 643.608 596.72C643.295 596.72 643.015 596.777 642.768 596.89C642.528 596.997 642.322 597.147 642.148 597.34C641.982 597.533 641.852 597.763 641.758 598.03C641.672 598.29 641.628 598.573 641.628 598.88ZM644.108 603.48C644.202 603.367 644.292 603.257 644.378 603.15C644.465 603.043 644.545 602.937 644.618 602.83C644.005 603.157 643.308 603.32 642.528 603.32C642.055 603.32 641.582 603.237 641.108 603.07C640.635 602.897 640.205 602.637 639.818 602.29C639.438 601.943 639.128 601.507 638.888 600.98C638.648 600.453 638.528 599.83 638.528 599.11C638.528 598.45 638.648 597.827 638.888 597.24C639.135 596.653 639.482 596.14 639.928 595.7C640.382 595.26 640.922 594.913 641.548 594.66C642.175 594.4 642.875 594.27 643.648 594.27C644.435 594.27 645.138 594.39 645.758 594.63C646.378 594.87 646.902 595.207 647.328 595.64C647.762 596.073 648.092 596.59 648.318 597.19C648.552 597.783 648.668 598.44 648.668 599.16C648.668 600.113 648.525 600.967 648.238 601.72C647.952 602.473 647.568 603.183 647.088 603.85L643.948 608.31C643.808 608.503 643.595 608.667 643.308 608.8C643.028 608.933 642.708 609 642.348 609H639.488L644.108 603.48ZM660.53 594.43V595.73C660.53 596.117 660.487 596.43 660.4 596.67C660.313 596.903 660.23 597.1 660.15 597.26L655.09 607.98C654.95 608.26 654.75 608.5 654.49 608.7C654.237 608.9 653.897 609 653.47 609H651.21L656.41 598.57C656.563 598.29 656.717 598.037 656.87 597.81C657.03 597.577 657.207 597.357 657.4 597.15H650.99C650.897 597.15 650.807 597.133 650.72 597.1C650.64 597.06 650.567 597.01 650.5 596.95C650.44 596.883 650.39 596.81 650.35 596.73C650.31 596.643 650.29 596.557 650.29 596.47V594.43H660.53ZM672.302 601.71C672.302 602.983 672.165 604.087 671.892 605.02C671.618 605.953 671.238 606.727 670.752 607.34C670.272 607.953 669.698 608.41 669.032 608.71C668.372 609.01 667.655 609.16 666.882 609.16C666.108 609.16 665.392 609.01 664.732 608.71C664.078 608.41 663.512 607.953 663.032 607.34C662.552 606.727 662.175 605.953 661.902 605.02C661.635 604.087 661.502 602.983 661.502 601.71C661.502 600.437 661.635 599.333 661.902 598.4C662.175 597.467 662.552 596.693 663.032 596.08C663.512 595.467 664.078 595.013 664.732 594.72C665.392 594.42 666.108 594.27 666.882 594.27C667.655 594.27 668.372 594.42 669.032 594.72C669.698 595.013 670.272 595.467 670.752 596.08C671.238 596.693 671.618 597.467 671.892 598.4C672.165 599.333 672.302 600.437 672.302 601.71ZM669.102 601.71C669.102 600.703 669.038 599.88 668.912 599.24C668.785 598.593 668.615 598.087 668.402 597.72C668.195 597.353 667.958 597.103 667.692 596.97C667.425 596.83 667.155 596.76 666.882 596.76C666.608 596.76 666.338 596.83 666.072 596.97C665.812 597.103 665.578 597.353 665.372 597.72C665.172 598.087 665.008 598.593 664.882 599.24C664.762 599.88 664.702 600.703 664.702 601.71C664.702 602.723 664.762 603.55 664.882 604.19C665.008 604.83 665.172 605.337 665.372 605.71C665.578 606.077 665.812 606.33 666.072 606.47C666.338 606.603 666.608 606.67 666.882 606.67C667.155 606.67 667.425 606.603 667.692 606.47C667.958 606.33 668.195 606.077 668.402 605.71C668.615 605.337 668.785 604.83 668.912 604.19C669.038 603.55 669.102 602.723 669.102 601.71Z" fill="black"/>
<path d="M451.807 606.76V609H443.507V606.76H446.307V599.41C446.307 599.223 446.31 599.037 446.317 598.85C446.324 598.657 446.334 598.463 446.347 598.27L444.687 599.65C444.54 599.763 444.394 599.833 444.247 599.86C444.107 599.88 443.974 599.88 443.847 599.86C443.72 599.833 443.607 599.79 443.507 599.73C443.407 599.663 443.334 599.597 443.287 599.53L442.307 598.23L446.847 594.42H449.407V606.76H451.807ZM456.628 598.88C456.628 600.333 457.302 601.06 458.648 601.06C459.308 601.06 459.815 600.863 460.168 600.47C460.528 600.07 460.708 599.54 460.708 598.88C460.708 598.527 460.655 598.217 460.548 597.95C460.448 597.677 460.305 597.45 460.118 597.27C459.938 597.09 459.718 596.953 459.458 596.86C459.198 596.767 458.915 596.72 458.608 596.72C458.295 596.72 458.015 596.777 457.768 596.89C457.528 596.997 457.322 597.147 457.148 597.34C456.982 597.533 456.852 597.763 456.758 598.03C456.672 598.29 456.628 598.573 456.628 598.88ZM459.108 603.48C459.202 603.367 459.292 603.257 459.378 603.15C459.465 603.043 459.545 602.937 459.618 602.83C459.005 603.157 458.308 603.32 457.528 603.32C457.055 603.32 456.582 603.237 456.108 603.07C455.635 602.897 455.205 602.637 454.818 602.29C454.438 601.943 454.128 601.507 453.888 600.98C453.648 600.453 453.528 599.83 453.528 599.11C453.528 598.45 453.648 597.827 453.888 597.24C454.135 596.653 454.482 596.14 454.928 595.7C455.382 595.26 455.922 594.913 456.548 594.66C457.175 594.4 457.875 594.27 458.648 594.27C459.435 594.27 460.138 594.39 460.758 594.63C461.378 594.87 461.902 595.207 462.328 595.64C462.762 596.073 463.092 596.59 463.318 597.19C463.552 597.783 463.668 598.44 463.668 599.16C463.668 600.113 463.525 600.967 463.238 601.72C462.952 602.473 462.568 603.183 462.088 603.85L458.948 608.31C458.808 608.503 458.595 608.667 458.308 608.8C458.028 608.933 457.708 609 457.348 609H454.488L459.108 603.48ZM470.28 606.71C470.6 606.71 470.897 606.65 471.17 606.53C471.45 606.41 471.69 606.247 471.89 606.04C472.09 605.827 472.247 605.58 472.36 605.3C472.48 605.013 472.54 604.703 472.54 604.37C472.54 603.997 472.483 603.663 472.37 603.37C472.263 603.077 472.11 602.83 471.91 602.63C471.71 602.43 471.467 602.277 471.18 602.17C470.9 602.063 470.587 602.01 470.24 602.01C469.927 602.01 469.64 602.067 469.38 602.18C469.12 602.287 468.893 602.443 468.7 602.65C468.513 602.857 468.367 603.103 468.26 603.39C468.153 603.677 468.1 604 468.1 604.36C468.1 604.72 468.143 605.043 468.23 605.33C468.317 605.617 468.45 605.863 468.63 606.07C468.81 606.277 469.037 606.437 469.31 606.55C469.583 606.657 469.907 606.71 470.28 606.71ZM469.78 600.03C470.247 599.857 470.767 599.77 471.34 599.77C471.867 599.77 472.387 599.857 472.9 600.03C473.413 600.203 473.873 600.47 474.28 600.83C474.687 601.19 475.013 601.647 475.26 602.2C475.513 602.747 475.64 603.393 475.64 604.14C475.64 604.82 475.513 605.467 475.26 606.08C475.007 606.687 474.647 607.22 474.18 607.68C473.72 608.133 473.163 608.493 472.51 608.76C471.857 609.027 471.133 609.16 470.34 609.16C469.527 609.16 468.797 609.033 468.15 608.78C467.503 608.52 466.953 608.16 466.5 607.7C466.053 607.24 465.71 606.69 465.47 606.05C465.237 605.41 465.12 604.707 465.12 603.94C465.12 602.507 465.673 601.05 466.78 599.57L470.06 595.14C470.213 594.947 470.433 594.78 470.72 594.64C471.013 594.5 471.347 594.43 471.72 594.43H474.48L470.16 599.59L469.78 600.03ZM487.302 601.71C487.302 602.983 487.165 604.087 486.892 605.02C486.618 605.953 486.238 606.727 485.752 607.34C485.272 607.953 484.698 608.41 484.032 608.71C483.372 609.01 482.655 609.16 481.882 609.16C481.108 609.16 480.392 609.01 479.732 608.71C479.078 608.41 478.512 607.953 478.032 607.34C477.552 606.727 477.175 605.953 476.902 605.02C476.635 604.087 476.502 602.983 476.502 601.71C476.502 600.437 476.635 599.333 476.902 598.4C477.175 597.467 477.552 596.693 478.032 596.08C478.512 595.467 479.078 595.013 479.732 594.72C480.392 594.42 481.108 594.27 481.882 594.27C482.655 594.27 483.372 594.42 484.032 594.72C484.698 595.013 485.272 595.467 485.752 596.08C486.238 596.693 486.618 597.467 486.892 598.4C487.165 599.333 487.302 600.437 487.302 601.71ZM484.102 601.71C484.102 600.703 484.038 599.88 483.912 599.24C483.785 598.593 483.615 598.087 483.402 597.72C483.195 597.353 482.958 597.103 482.692 596.97C482.425 596.83 482.155 596.76 481.882 596.76C481.608 596.76 481.338 596.83 481.072 596.97C480.812 597.103 480.578 597.353 480.372 597.72C480.172 598.087 480.008 598.593 479.882 599.24C479.762 599.88 479.702 600.703 479.702 601.71C479.702 602.723 479.762 603.55 479.882 604.19C480.008 604.83 480.172 605.337 480.372 605.71C480.578 606.077 480.812 606.33 481.072 606.47C481.338 606.603 481.608 606.67 481.882 606.67C482.155 606.67 482.425 606.603 482.692 606.47C482.958 606.33 483.195 606.077 483.402 605.71C483.615 605.337 483.785 604.83 483.912 604.19C484.038 603.55 484.102 602.723 484.102 601.71Z" fill="black"/>
<path d="M329.307 486.76V489H321.007V486.76H323.807V479.41C323.807 479.223 323.81 479.037 323.817 478.85C323.824 478.657 323.834 478.463 323.847 478.27L322.187 479.65C322.04 479.763 321.894 479.833 321.747 479.86C321.607 479.88 321.474 479.88 321.347 479.86C321.22 479.833 321.107 479.79 321.007 479.73C320.907 479.663 320.834 479.597 320.787 479.53L319.807 478.23L324.347 474.42H326.907V486.76H329.307ZM341.598 481.71C341.598 482.983 341.462 484.087 341.188 485.02C340.915 485.953 340.535 486.727 340.048 487.34C339.568 487.953 338.995 488.41 338.328 488.71C337.668 489.01 336.952 489.16 336.178 489.16C335.405 489.16 334.688 489.01 334.028 488.71C333.375 488.41 332.808 487.953 332.328 487.34C331.848 486.727 331.472 485.953 331.198 485.02C330.932 484.087 330.798 482.983 330.798 481.71C330.798 480.437 330.932 479.333 331.198 478.4C331.472 477.467 331.848 476.693 332.328 476.08C332.808 475.467 333.375 475.013 334.028 474.72C334.688 474.42 335.405 474.27 336.178 474.27C336.952 474.27 337.668 474.42 338.328 474.72C338.995 475.013 339.568 475.467 340.048 476.08C340.535 476.693 340.915 477.467 341.188 478.4C341.462 479.333 341.598 480.437 341.598 481.71ZM338.398 481.71C338.398 480.703 338.335 479.88 338.208 479.24C338.082 478.593 337.912 478.087 337.698 477.72C337.492 477.353 337.255 477.103 336.988 476.97C336.722 476.83 336.452 476.76 336.178 476.76C335.905 476.76 335.635 476.83 335.368 476.97C335.108 477.103 334.875 477.353 334.668 477.72C334.468 478.087 334.305 478.593 334.178 479.24C334.058 479.88 333.998 480.703 333.998 481.71C333.998 482.723 334.058 483.55 334.178 484.19C334.305 484.83 334.468 485.337 334.668 485.71C334.875 486.077 335.108 486.33 335.368 486.47C335.635 486.603 335.905 486.67 336.178 486.67C336.452 486.67 336.722 486.603 336.988 486.47C337.255 486.33 337.492 486.077 337.698 485.71C337.912 485.337 338.082 484.83 338.208 484.19C338.335 483.55 338.398 482.723 338.398 481.71ZM353.2 481.71C353.2 482.983 353.063 484.087 352.79 485.02C352.517 485.953 352.137 486.727 351.65 487.34C351.17 487.953 350.597 488.41 349.93 488.71C349.27 489.01 348.553 489.16 347.78 489.16C347.007 489.16 346.29 489.01 345.63 488.71C344.977 488.41 344.41 487.953 343.93 487.34C343.45 486.727 343.073 485.953 342.8 485.02C342.533 484.087 342.4 482.983 342.4 481.71C342.4 480.437 342.533 479.333 342.8 478.4C343.073 477.467 343.45 476.693 343.93 476.08C344.41 475.467 344.977 475.013 345.63 474.72C346.29 474.42 347.007 474.27 347.78 474.27C348.553 474.27 349.27 474.42 349.93 474.72C350.597 475.013 351.17 475.467 351.65 476.08C352.137 476.693 352.517 477.467 352.79 478.4C353.063 479.333 353.2 480.437 353.2 481.71ZM350 481.71C350 480.703 349.937 479.88 349.81 479.24C349.683 478.593 349.513 478.087 349.3 477.72C349.093 477.353 348.857 477.103 348.59 476.97C348.323 476.83 348.053 476.76 347.78 476.76C347.507 476.76 347.237 476.83 346.97 476.97C346.71 477.103 346.477 477.353 346.27 477.72C346.07 478.087 345.907 478.593 345.78 479.24C345.66 479.88 345.6 480.703 345.6 481.71C345.6 482.723 345.66 483.55 345.78 484.19C345.907 484.83 346.07 485.337 346.27 485.71C346.477 486.077 346.71 486.33 346.97 486.47C347.237 486.603 347.507 486.67 347.78 486.67C348.053 486.67 348.323 486.603 348.59 486.47C348.857 486.33 349.093 486.077 349.3 485.71C349.513 485.337 349.683 484.83 349.81 484.19C349.937 483.55 350 482.723 350 481.71ZM364.802 481.71C364.802 482.983 364.665 484.087 364.392 485.02C364.118 485.953 363.738 486.727 363.252 487.34C362.772 487.953 362.198 488.41 361.532 488.71C360.872 489.01 360.155 489.16 359.382 489.16C358.608 489.16 357.892 489.01 357.232 488.71C356.578 488.41 356.012 487.953 355.532 487.34C355.052 486.727 354.675 485.953 354.402 485.02C354.135 484.087 354.002 482.983 354.002 481.71C354.002 480.437 354.135 479.333 354.402 478.4C354.675 477.467 355.052 476.693 355.532 476.08C356.012 475.467 356.578 475.013 357.232 474.72C357.892 474.42 358.608 474.27 359.382 474.27C360.155 474.27 360.872 474.42 361.532 474.72C362.198 475.013 362.772 475.467 363.252 476.08C363.738 476.693 364.118 477.467 364.392 478.4C364.665 479.333 364.802 480.437 364.802 481.71ZM361.602 481.71C361.602 480.703 361.538 479.88 361.412 479.24C361.285 478.593 361.115 478.087 360.902 477.72C360.695 477.353 360.458 477.103 360.192 476.97C359.925 476.83 359.655 476.76 359.382 476.76C359.108 476.76 358.838 476.83 358.572 476.97C358.312 477.103 358.078 477.353 357.872 477.72C357.672 478.087 357.508 478.593 357.382 479.24C357.262 479.88 357.202 480.703 357.202 481.71C357.202 482.723 357.262 483.55 357.382 484.19C357.508 484.83 357.672 485.337 357.872 485.71C358.078 486.077 358.312 486.33 358.572 486.47C358.838 486.603 359.108 486.67 359.382 486.67C359.655 486.67 359.925 486.603 360.192 486.47C360.458 486.33 360.695 486.077 360.902 485.71C361.115 485.337 361.285 484.83 361.412 484.19C361.538 483.55 361.602 482.723 361.602 481.71Z" fill="black"/>
<path d="M329.307 410.76V413H321.007V410.76H323.807V403.41C323.807 403.223 323.81 403.037 323.817 402.85C323.824 402.657 323.834 402.463 323.847 402.27L322.187 403.65C322.04 403.763 321.894 403.833 321.747 403.86C321.607 403.88 321.474 403.88 321.347 403.86C321.22 403.833 321.107 403.79 321.007 403.73C320.907 403.663 320.834 403.597 320.787 403.53L319.807 402.23L324.347 398.42H326.907V410.76H329.307ZM341.598 405.71C341.598 406.983 341.462 408.087 341.188 409.02C340.915 409.953 340.535 410.727 340.048 411.34C339.568 411.953 338.995 412.41 338.328 412.71C337.668 413.01 336.952 413.16 336.178 413.16C335.405 413.16 334.688 413.01 334.028 412.71C333.375 412.41 332.808 411.953 332.328 411.34C331.848 410.727 331.472 409.953 331.198 409.02C330.932 408.087 330.798 406.983 330.798 405.71C330.798 404.437 330.932 403.333 331.198 402.4C331.472 401.467 331.848 400.693 332.328 400.08C332.808 399.467 333.375 399.013 334.028 398.72C334.688 398.42 335.405 398.27 336.178 398.27C336.952 398.27 337.668 398.42 338.328 398.72C338.995 399.013 339.568 399.467 340.048 400.08C340.535 400.693 340.915 401.467 341.188 402.4C341.462 403.333 341.598 404.437 341.598 405.71ZM338.398 405.71C338.398 404.703 338.335 403.88 338.208 403.24C338.082 402.593 337.912 402.087 337.698 401.72C337.492 401.353 337.255 401.103 336.988 400.97C336.722 400.83 336.452 400.76 336.178 400.76C335.905 400.76 335.635 400.83 335.368 400.97C335.108 401.103 334.875 401.353 334.668 401.72C334.468 402.087 334.305 402.593 334.178 403.24C334.058 403.88 333.998 404.703 333.998 405.71C333.998 406.723 334.058 407.55 334.178 408.19C334.305 408.83 334.468 409.337 334.668 409.71C334.875 410.077 335.108 410.33 335.368 410.47C335.635 410.603 335.905 410.67 336.178 410.67C336.452 410.67 336.722 410.603 336.988 410.47C337.255 410.33 337.492 410.077 337.698 409.71C337.912 409.337 338.082 408.83 338.208 408.19C338.335 407.55 338.398 406.723 338.398 405.71ZM352.51 410.76V413H344.21V410.76H347.01V403.41C347.01 403.223 347.013 403.037 347.02 402.85C347.027 402.657 347.037 402.463 347.05 402.27L345.39 403.65C345.243 403.763 345.097 403.833 344.95 403.86C344.81 403.88 344.677 403.88 344.55 403.86C344.423 403.833 344.31 403.79 344.21 403.73C344.11 403.663 344.037 403.597 343.99 403.53L343.01 402.23L347.55 398.42H350.11V410.76H352.51ZM364.802 405.71C364.802 406.983 364.665 408.087 364.392 409.02C364.118 409.953 363.738 410.727 363.252 411.34C362.772 411.953 362.198 412.41 361.532 412.71C360.872 413.01 360.155 413.16 359.382 413.16C358.608 413.16 357.892 413.01 357.232 412.71C356.578 412.41 356.012 411.953 355.532 411.34C355.052 410.727 354.675 409.953 354.402 409.02C354.135 408.087 354.002 406.983 354.002 405.71C354.002 404.437 354.135 403.333 354.402 402.4C354.675 401.467 355.052 400.693 355.532 400.08C356.012 399.467 356.578 399.013 357.232 398.72C357.892 398.42 358.608 398.27 359.382 398.27C360.155 398.27 360.872 398.42 361.532 398.72C362.198 399.013 362.772 399.467 363.252 400.08C363.738 400.693 364.118 401.467 364.392 402.4C364.665 403.333 364.802 404.437 364.802 405.71ZM361.602 405.71C361.602 404.703 361.538 403.88 361.412 403.24C361.285 402.593 361.115 402.087 360.902 401.72C360.695 401.353 360.458 401.103 360.192 400.97C359.925 400.83 359.655 400.76 359.382 400.76C359.108 400.76 358.838 400.83 358.572 400.97C358.312 401.103 358.078 401.353 357.872 401.72C357.672 402.087 357.508 402.593 357.382 403.24C357.262 403.88 357.202 404.703 357.202 405.71C357.202 406.723 357.262 407.55 357.382 408.19C357.508 408.83 357.672 409.337 357.872 409.71C358.078 410.077 358.312 410.33 358.572 410.47C358.838 410.603 359.108 410.67 359.382 410.67C359.655 410.67 359.925 410.603 360.192 410.47C360.458 410.33 360.695 410.077 360.902 409.71C361.115 409.337 361.285 408.83 361.412 408.19C361.538 407.55 361.602 406.723 361.602 405.71Z" fill="black"/>
<path d="M327.307 336.76V339H319.007V336.76H321.807V329.41C321.807 329.223 321.81 329.037 321.817 328.85C321.824 328.657 321.834 328.463 321.847 328.27L320.187 329.65C320.04 329.763 319.894 329.833 319.747 329.86C319.607 329.88 319.474 329.88 319.347 329.86C319.22 329.833 319.107 329.79 319.007 329.73C318.907 329.663 318.834 329.597 318.787 329.53L317.807 328.23L322.347 324.42H324.907V336.76H327.307ZM339.598 331.71C339.598 332.983 339.462 334.087 339.188 335.02C338.915 335.953 338.535 336.727 338.048 337.34C337.568 337.953 336.995 338.41 336.328 338.71C335.668 339.01 334.952 339.16 334.178 339.16C333.405 339.16 332.688 339.01 332.028 338.71C331.375 338.41 330.808 337.953 330.328 337.34C329.848 336.727 329.472 335.953 329.198 335.02C328.932 334.087 328.798 332.983 328.798 331.71C328.798 330.437 328.932 329.333 329.198 328.4C329.472 327.467 329.848 326.693 330.328 326.08C330.808 325.467 331.375 325.013 332.028 324.72C332.688 324.42 333.405 324.27 334.178 324.27C334.952 324.27 335.668 324.42 336.328 324.72C336.995 325.013 337.568 325.467 338.048 326.08C338.535 326.693 338.915 327.467 339.188 328.4C339.462 329.333 339.598 330.437 339.598 331.71ZM336.398 331.71C336.398 330.703 336.335 329.88 336.208 329.24C336.082 328.593 335.912 328.087 335.698 327.72C335.492 327.353 335.255 327.103 334.988 326.97C334.722 326.83 334.452 326.76 334.178 326.76C333.905 326.76 333.635 326.83 333.368 326.97C333.108 327.103 332.875 327.353 332.668 327.72C332.468 328.087 332.305 328.593 332.178 329.24C332.058 329.88 331.998 330.703 331.998 331.71C331.998 332.723 332.058 333.55 332.178 334.19C332.305 334.83 332.468 335.337 332.668 335.71C332.875 336.077 333.108 336.33 333.368 336.47C333.635 336.603 333.905 336.67 334.178 336.67C334.452 336.67 334.722 336.603 334.988 336.47C335.255 336.33 335.492 336.077 335.698 335.71C335.912 335.337 336.082 334.83 336.208 334.19C336.335 333.55 336.398 332.723 336.398 331.71ZM349.76 336.2C350.093 336.2 350.357 336.293 350.55 336.48C350.743 336.66 350.84 336.9 350.84 337.2V339H340.6V338C340.6 337.807 340.64 337.6 340.72 337.38C340.8 337.16 340.94 336.96 341.14 336.78L345.34 332.55C345.7 332.19 346.013 331.847 346.28 331.52C346.547 331.193 346.767 330.873 346.94 330.56C347.113 330.24 347.243 329.923 347.33 329.61C347.417 329.29 347.46 328.953 347.46 328.6C347.46 328.02 347.32 327.577 347.04 327.27C346.767 326.957 346.347 326.8 345.78 326.8C345.32 326.8 344.93 326.923 344.61 327.17C344.297 327.41 344.08 327.71 343.96 328.07C343.82 328.437 343.637 328.68 343.41 328.8C343.183 328.92 342.86 328.947 342.44 328.88L340.8 328.59C340.907 327.863 341.11 327.23 341.41 326.69C341.717 326.15 342.093 325.7 342.54 325.34C342.993 324.98 343.51 324.713 344.09 324.54C344.67 324.36 345.293 324.27 345.96 324.27C346.68 324.27 347.327 324.377 347.9 324.59C348.48 324.797 348.973 325.087 349.38 325.46C349.787 325.833 350.097 326.28 350.31 326.8C350.53 327.313 350.64 327.88 350.64 328.5C350.64 329.033 350.563 329.527 350.41 329.98C350.263 330.433 350.06 330.867 349.8 331.28C349.54 331.687 349.237 332.083 348.89 332.47C348.55 332.85 348.187 333.237 347.8 333.63L344.95 336.55C345.317 336.437 345.68 336.35 346.04 336.29C346.4 336.23 346.733 336.2 347.04 336.2H349.76ZM362.802 331.71C362.802 332.983 362.665 334.087 362.392 335.02C362.118 335.953 361.738 336.727 361.252 337.34C360.772 337.953 360.198 338.41 359.532 338.71C358.872 339.01 358.155 339.16 357.382 339.16C356.608 339.16 355.892 339.01 355.232 338.71C354.578 338.41 354.012 337.953 353.532 337.34C353.052 336.727 352.675 335.953 352.402 335.02C352.135 334.087 352.002 332.983 352.002 331.71C352.002 330.437 352.135 329.333 352.402 328.4C352.675 327.467 353.052 326.693 353.532 326.08C354.012 325.467 354.578 325.013 355.232 324.72C355.892 324.42 356.608 324.27 357.382 324.27C358.155 324.27 358.872 324.42 359.532 324.72C360.198 325.013 360.772 325.467 361.252 326.08C361.738 326.693 362.118 327.467 362.392 328.4C362.665 329.333 362.802 330.437 362.802 331.71ZM359.602 331.71C359.602 330.703 359.538 329.88 359.412 329.24C359.285 328.593 359.115 328.087 358.902 327.72C358.695 327.353 358.458 327.103 358.192 326.97C357.925 326.83 357.655 326.76 357.382 326.76C357.108 326.76 356.838 326.83 356.572 326.97C356.312 327.103 356.078 327.353 355.872 327.72C355.672 328.087 355.508 328.593 355.382 329.24C355.262 329.88 355.202 330.703 355.202 331.71C355.202 332.723 355.262 333.55 355.382 334.19C355.508 334.83 355.672 335.337 355.872 335.71C356.078 336.077 356.312 336.33 356.572 336.47C356.838 336.603 357.108 336.67 357.382 336.67C357.655 336.67 357.925 336.603 358.192 336.47C358.458 336.33 358.695 336.077 358.902 335.71C359.115 335.337 359.285 334.83 359.412 334.19C359.538 333.55 359.602 332.723 359.602 331.71Z" fill="black"/>
<path d="M327.307 262.76V265H319.007V262.76H321.807V255.41C321.807 255.223 321.81 255.037 321.817 254.85C321.824 254.657 321.834 254.463 321.847 254.27L320.187 255.65C320.04 255.763 319.894 255.833 319.747 255.86C319.607 255.88 319.474 255.88 319.347 255.86C319.22 255.833 319.107 255.79 319.007 255.73C318.907 255.663 318.834 255.597 318.787 255.53L317.807 254.23L322.347 250.42H324.907V262.76H327.307ZM339.598 257.71C339.598 258.983 339.462 260.087 339.188 261.02C338.915 261.953 338.535 262.727 338.048 263.34C337.568 263.953 336.995 264.41 336.328 264.71C335.668 265.01 334.952 265.16 334.178 265.16C333.405 265.16 332.688 265.01 332.028 264.71C331.375 264.41 330.808 263.953 330.328 263.34C329.848 262.727 329.472 261.953 329.198 261.02C328.932 260.087 328.798 258.983 328.798 257.71C328.798 256.437 328.932 255.333 329.198 254.4C329.472 253.467 329.848 252.693 330.328 252.08C330.808 251.467 331.375 251.013 332.028 250.72C332.688 250.42 333.405 250.27 334.178 250.27C334.952 250.27 335.668 250.42 336.328 250.72C336.995 251.013 337.568 251.467 338.048 252.08C338.535 252.693 338.915 253.467 339.188 254.4C339.462 255.333 339.598 256.437 339.598 257.71ZM336.398 257.71C336.398 256.703 336.335 255.88 336.208 255.24C336.082 254.593 335.912 254.087 335.698 253.72C335.492 253.353 335.255 253.103 334.988 252.97C334.722 252.83 334.452 252.76 334.178 252.76C333.905 252.76 333.635 252.83 333.368 252.97C333.108 253.103 332.875 253.353 332.668 253.72C332.468 254.087 332.305 254.593 332.178 255.24C332.058 255.88 331.998 256.703 331.998 257.71C331.998 258.723 332.058 259.55 332.178 260.19C332.305 260.83 332.468 261.337 332.668 261.71C332.875 262.077 333.108 262.33 333.368 262.47C333.635 262.603 333.905 262.67 334.178 262.67C334.452 262.67 334.722 262.603 334.988 262.47C335.255 262.33 335.492 262.077 335.698 261.71C335.912 261.337 336.082 260.83 336.208 260.19C336.335 259.55 336.398 258.723 336.398 257.71ZM340.88 254.59C340.987 253.863 341.19 253.23 341.49 252.69C341.797 252.15 342.173 251.7 342.62 251.34C343.073 250.98 343.59 250.713 344.17 250.54C344.75 250.36 345.373 250.27 346.04 250.27C346.76 250.27 347.4 250.373 347.96 250.58C348.52 250.78 348.993 251.053 349.38 251.4C349.767 251.747 350.06 252.15 350.26 252.61C350.46 253.063 350.56 253.543 350.56 254.05C350.56 254.51 350.513 254.917 350.42 255.27C350.327 255.617 350.187 255.92 350 256.18C349.82 256.433 349.593 256.65 349.32 256.83C349.053 257.003 348.747 257.15 348.4 257.27C350.013 257.837 350.82 258.937 350.82 260.57C350.82 261.343 350.68 262.017 350.4 262.59C350.12 263.163 349.743 263.64 349.27 264.02C348.803 264.4 348.26 264.687 347.64 264.88C347.02 265.067 346.373 265.16 345.7 265.16C345.007 265.16 344.39 265.087 343.85 264.94C343.31 264.787 342.83 264.553 342.41 264.24C341.99 263.92 341.62 263.513 341.3 263.02C340.987 262.527 340.713 261.94 340.48 261.26L341.86 260.7C342.22 260.56 342.553 260.523 342.86 260.59C343.167 260.657 343.387 260.81 343.52 261.05C343.82 261.603 344.137 262.007 344.47 262.26C344.81 262.507 345.207 262.63 345.66 262.63C346.007 262.63 346.307 262.573 346.56 262.46C346.82 262.34 347.033 262.19 347.2 262.01C347.373 261.823 347.503 261.613 347.59 261.38C347.677 261.147 347.72 260.91 347.72 260.67C347.72 260.357 347.697 260.077 347.65 259.83C347.61 259.577 347.49 259.36 347.29 259.18C347.09 259 346.787 258.863 346.38 258.77C345.98 258.67 345.42 258.62 344.7 258.62V256.48C345.307 256.48 345.797 256.433 346.17 256.34C346.543 256.247 346.83 256.12 347.03 255.96C347.237 255.793 347.373 255.593 347.44 255.36C347.507 255.127 347.54 254.87 347.54 254.59C347.54 254.017 347.4 253.577 347.12 253.27C346.847 252.957 346.427 252.8 345.86 252.8C345.4 252.8 345.01 252.923 344.69 253.17C344.377 253.41 344.16 253.71 344.04 254.07C343.9 254.437 343.717 254.68 343.49 254.8C343.263 254.92 342.94 254.947 342.52 254.88L340.88 254.59ZM362.802 257.71C362.802 258.983 362.665 260.087 362.392 261.02C362.118 261.953 361.738 262.727 361.252 263.34C360.772 263.953 360.198 264.41 359.532 264.71C358.872 265.01 358.155 265.16 357.382 265.16C356.608 265.16 355.892 265.01 355.232 264.71C354.578 264.41 354.012 263.953 353.532 263.34C353.052 262.727 352.675 261.953 352.402 261.02C352.135 260.087 352.002 258.983 352.002 257.71C352.002 256.437 352.135 255.333 352.402 254.4C352.675 253.467 353.052 252.693 353.532 252.08C354.012 251.467 354.578 251.013 355.232 250.72C355.892 250.42 356.608 250.27 357.382 250.27C358.155 250.27 358.872 250.42 359.532 250.72C360.198 251.013 360.772 251.467 361.252 252.08C361.738 252.693 362.118 253.467 362.392 254.4C362.665 255.333 362.802 256.437 362.802 257.71ZM359.602 257.71C359.602 256.703 359.538 255.88 359.412 255.24C359.285 254.593 359.115 254.087 358.902 253.72C358.695 253.353 358.458 253.103 358.192 252.97C357.925 252.83 357.655 252.76 357.382 252.76C357.108 252.76 356.838 252.83 356.572 252.97C356.312 253.103 356.078 253.353 355.872 253.72C355.672 254.087 355.508 254.593 355.382 255.24C355.262 255.88 355.202 256.703 355.202 257.71C355.202 258.723 355.262 259.55 355.382 260.19C355.508 260.83 355.672 261.337 355.872 261.71C356.078 262.077 356.312 262.33 356.572 262.47C356.838 262.603 357.108 262.67 357.382 262.67C357.655 262.67 357.925 262.603 358.192 262.47C358.458 262.33 358.695 262.077 358.902 261.71C359.115 261.337 359.285 260.83 359.412 260.19C359.538 259.55 359.602 258.723 359.602 257.71Z" fill="black"/>
<path d="M327.807 190.76V193H319.507V190.76H322.307V183.41C322.307 183.223 322.31 183.037 322.317 182.85C322.324 182.657 322.334 182.463 322.347 182.27L320.687 183.65C320.54 183.763 320.394 183.833 320.247 183.86C320.107 183.88 319.974 183.88 319.847 183.86C319.72 183.833 319.607 183.79 319.507 183.73C319.407 183.663 319.334 183.597 319.287 183.53L318.307 182.23L322.847 178.42H325.407V190.76H327.807ZM340.098 185.71C340.098 186.983 339.962 188.087 339.688 189.02C339.415 189.953 339.035 190.727 338.548 191.34C338.068 191.953 337.495 192.41 336.828 192.71C336.168 193.01 335.452 193.16 334.678 193.16C333.905 193.16 333.188 193.01 332.528 192.71C331.875 192.41 331.308 191.953 330.828 191.34C330.348 190.727 329.972 189.953 329.698 189.02C329.432 188.087 329.298 186.983 329.298 185.71C329.298 184.437 329.432 183.333 329.698 182.4C329.972 181.467 330.348 180.693 330.828 180.08C331.308 179.467 331.875 179.013 332.528 178.72C333.188 178.42 333.905 178.27 334.678 178.27C335.452 178.27 336.168 178.42 336.828 178.72C337.495 179.013 338.068 179.467 338.548 180.08C339.035 180.693 339.415 181.467 339.688 182.4C339.962 183.333 340.098 184.437 340.098 185.71ZM336.898 185.71C336.898 184.703 336.835 183.88 336.708 183.24C336.582 182.593 336.412 182.087 336.198 181.72C335.992 181.353 335.755 181.103 335.488 180.97C335.222 180.83 334.952 180.76 334.678 180.76C334.405 180.76 334.135 180.83 333.868 180.97C333.608 181.103 333.375 181.353 333.168 181.72C332.968 182.087 332.805 182.593 332.678 183.24C332.558 183.88 332.498 184.703 332.498 185.71C332.498 186.723 332.558 187.55 332.678 188.19C332.805 188.83 332.968 189.337 333.168 189.71C333.375 190.077 333.608 190.33 333.868 190.47C334.135 190.603 334.405 190.67 334.678 190.67C334.952 190.67 335.222 190.603 335.488 190.47C335.755 190.33 335.992 190.077 336.198 189.71C336.412 189.337 336.582 188.83 336.708 188.19C336.835 187.55 336.898 186.723 336.898 185.71ZM347.45 187.34V183.54C347.45 183.307 347.457 183.057 347.47 182.79C347.49 182.517 347.517 182.233 347.55 181.94L343.7 187.34H347.45ZM351.65 187.34V189.08C351.65 189.233 351.597 189.367 351.49 189.48C351.39 189.593 351.243 189.65 351.05 189.65H350.15V193H347.45V189.65H341.59C341.397 189.65 341.22 189.59 341.06 189.47C340.907 189.35 340.81 189.2 340.77 189.02L340.45 187.49L347.19 178.43H350.15V187.34H351.65ZM363.302 185.71C363.302 186.983 363.165 188.087 362.892 189.02C362.618 189.953 362.238 190.727 361.752 191.34C361.272 191.953 360.698 192.41 360.032 192.71C359.372 193.01 358.655 193.16 357.882 193.16C357.108 193.16 356.392 193.01 355.732 192.71C355.078 192.41 354.512 191.953 354.032 191.34C353.552 190.727 353.175 189.953 352.902 189.02C352.635 188.087 352.502 186.983 352.502 185.71C352.502 184.437 352.635 183.333 352.902 182.4C353.175 181.467 353.552 180.693 354.032 180.08C354.512 179.467 355.078 179.013 355.732 178.72C356.392 178.42 357.108 178.27 357.882 178.27C358.655 178.27 359.372 178.42 360.032 178.72C360.698 179.013 361.272 179.467 361.752 180.08C362.238 180.693 362.618 181.467 362.892 182.4C363.165 183.333 363.302 184.437 363.302 185.71ZM360.102 185.71C360.102 184.703 360.038 183.88 359.912 183.24C359.785 182.593 359.615 182.087 359.402 181.72C359.195 181.353 358.958 181.103 358.692 180.97C358.425 180.83 358.155 180.76 357.882 180.76C357.608 180.76 357.338 180.83 357.072 180.97C356.812 181.103 356.578 181.353 356.372 181.72C356.172 182.087 356.008 182.593 355.882 183.24C355.762 183.88 355.702 184.703 355.702 185.71C355.702 186.723 355.762 187.55 355.882 188.19C356.008 188.83 356.172 189.337 356.372 189.71C356.578 190.077 356.812 190.33 357.072 190.47C357.338 190.603 357.608 190.67 357.882 190.67C358.155 190.67 358.425 190.603 358.692 190.47C358.958 190.33 359.195 190.077 359.402 189.71C359.615 189.337 359.785 188.83 359.912 188.19C360.038 187.55 360.102 186.723 360.102 185.71Z" fill="black"/>
<path d="M451.5 475.5L630 423H804.5L960.5 450L1181 358.5L1420 321L1559 241.5" stroke="#343753"/>
<g filter="url(#filter1_b)">
<ellipse cx="441.51" cy="477.987" rx="16.3298" ry="15.8015" transform="rotate(-0.65549 441.51 477.987)" fill="white" fill-opacity="0.9"/>
</g>
<g filter="url(#filter2_b)">
<ellipse cx="441.51" cy="477.988" rx="8.46733" ry="8.19335" transform="rotate(-0.65549 441.51 477.988)" fill="#E74137" fill-opacity="0.8"/>
</g>
<g filter="url(#filter3_b)">
<ellipse cx="629.51" cy="421.987" rx="16.3298" ry="15.8015" transform="rotate(-0.65549 629.51 421.987)" fill="white" fill-opacity="0.9"/>
</g>
<g filter="url(#filter4_b)">
<ellipse cx="629.51" cy="421.988" rx="8.46733" ry="8.19335" transform="rotate(-0.65549 629.51 421.988)" fill="#E74137" fill-opacity="0.8"/>
</g>
<g filter="url(#filter5_b)">
<ellipse cx="803.51" cy="425.987" rx="16.3298" ry="15.8015" transform="rotate(-0.65549 803.51 425.987)" fill="white" fill-opacity="0.9"/>
</g>
<g filter="url(#filter6_b)">
<ellipse cx="803.51" cy="425.988" rx="8.46733" ry="8.19335" transform="rotate(-0.65549 803.51 425.988)" fill="#E74137" fill-opacity="0.8"/>
</g>
<g filter="url(#filter7_b)">
<ellipse cx="958.51" cy="449.987" rx="16.3298" ry="15.8015" transform="rotate(-0.65549 958.51 449.987)" fill="white" fill-opacity="0.9"/>
</g>
<g filter="url(#filter8_b)">
<ellipse cx="958.51" cy="449.988" rx="8.46733" ry="8.19335" transform="rotate(-0.65549 958.51 449.988)" fill="#E74137" fill-opacity="0.8"/>
</g>
<g filter="url(#filter9_b)">
<ellipse cx="1174.51" cy="362.987" rx="16.3298" ry="15.8015" transform="rotate(-0.65549 1174.51 362.987)" fill="white" fill-opacity="0.9"/>
</g>
<g filter="url(#filter10_b)">
<ellipse cx="1174.51" cy="362.988" rx="8.46733" ry="8.19335" transform="rotate(-0.65549 1174.51 362.988)" fill="#E74137" fill-opacity="0.8"/>
</g>
<g filter="url(#filter11_b)">
<ellipse cx="1419.51" cy="319.987" rx="16.3298" ry="15.8015" transform="rotate(-0.65549 1419.51 319.987)" fill="white" fill-opacity="0.9"/>
</g>
<g filter="url(#filter12_b)">
<ellipse cx="1419.51" cy="319.988" rx="8.46733" ry="8.19335" transform="rotate(-0.65549 1419.51 319.988)" fill="#E74137" fill-opacity="0.8"/>
</g>
<g filter="url(#filter13_b)">
<ellipse cx="1556.51" cy="241.987" rx="16.3298" ry="15.8015" transform="rotate(-0.65549 1556.51 241.987)" fill="white" fill-opacity="0.9"/>
</g>
<g filter="url(#filter14_b)">
<ellipse cx="1556.51" cy="241.988" rx="8.46733" ry="8.19335" transform="rotate(-0.65549 1556.51 241.988)" fill="#E74137" fill-opacity="0.8"/>
</g>
</g>
<defs>
<filter id="filter0_b" x="381" y="172" width="1203" height="414" filterUnits="userSpaceOnUse" color-interpolation-filters="sRGB">
<feFlood flood-opacity="0" result="BackgroundImageFix"/>
<feGaussianBlur in="BackgroundImage" stdDeviation="5"/>
<feComposite in2="SourceAlpha" operator="in" result="effect1_backgroundBlur"/>
<feBlend mode="normal" in="SourceGraphic" in2="effect1_backgroundBlur" result="shape"/>
</filter>
<filter id="filter1_b" x="385" y="422" width="113.019" height="111.974" filterUnits="userSpaceOnUse" color-interpolation-filters="sRGB">
<feFlood flood-opacity="0" result="BackgroundImageFix"/>
<feGaussianBlur in="BackgroundImage" stdDeviation="20"/>
<feComposite in2="SourceAlpha" operator="in" result="effect1_backgroundBlur"/>
<feBlend mode="normal" in="SourceGraphic" in2="effect1_backgroundBlur" result="shape"/>
</filter>
<filter id="filter2_b" x="392.949" y="429.698" width="97.121" height="96.5794" filterUnits="userSpaceOnUse" color-interpolation-filters="sRGB">
<feFlood flood-opacity="0" result="BackgroundImageFix"/>
<feGaussianBlur in="BackgroundImage" stdDeviation="20"/>
<feComposite in2="SourceAlpha" operator="in" result="effect1_backgroundBlur"/>
<feBlend mode="normal" in="SourceGraphic" in2="effect1_backgroundBlur" result="shape"/>
</filter>
<filter id="filter3_b" x="573" y="366" width="113.019" height="111.974" filterUnits="userSpaceOnUse" color-interpolation-filters="sRGB">
<feFlood flood-opacity="0" result="BackgroundImageFix"/>
<feGaussianBlur in="BackgroundImage" stdDeviation="20"/>
<feComposite in2="SourceAlpha" operator="in" result="effect1_backgroundBlur"/>
<feBlend mode="normal" in="SourceGraphic" in2="effect1_backgroundBlur" result="shape"/>
</filter>
<filter id="filter4_b" x="580.949" y="373.698" width="97.121" height="96.5794" filterUnits="userSpaceOnUse" color-interpolation-filters="sRGB">
<feFlood flood-opacity="0" result="BackgroundImageFix"/>
<feGaussianBlur in="BackgroundImage" stdDeviation="20"/>
<feComposite in2="SourceAlpha" operator="in" result="effect1_backgroundBlur"/>
<feBlend mode="normal" in="SourceGraphic" in2="effect1_backgroundBlur" result="shape"/>
</filter>
<filter id="filter5_b" x="747" y="370" width="113.019" height="111.974" filterUnits="userSpaceOnUse" color-interpolation-filters="sRGB">
<feFlood flood-opacity="0" result="BackgroundImageFix"/>
<feGaussianBlur in="BackgroundImage" stdDeviation="20"/>
<feComposite in2="SourceAlpha" operator="in" result="effect1_backgroundBlur"/>
<feBlend mode="normal" in="SourceGraphic" in2="effect1_backgroundBlur" result="shape"/>
</filter>
<filter id="filter6_b" x="754.949" y="377.698" width="97.121" height="96.5794" filterUnits="userSpaceOnUse" color-interpolation-filters="sRGB">
<feFlood flood-opacity="0" result="BackgroundImageFix"/>
<feGaussianBlur in="BackgroundImage" stdDeviation="20"/>
<feComposite in2="SourceAlpha" operator="in" result="effect1_backgroundBlur"/>
<feBlend mode="normal" in="SourceGraphic" in2="effect1_backgroundBlur" result="shape"/>
</filter>
<filter id="filter7_b" x="902" y="394" width="113.019" height="111.974" filterUnits="userSpaceOnUse" color-interpolation-filters="sRGB">
<feFlood flood-opacity="0" result="BackgroundImageFix"/>
<feGaussianBlur in="BackgroundImage" stdDeviation="20"/>
<feComposite in2="SourceAlpha" operator="in" result="effect1_backgroundBlur"/>
<feBlend mode="normal" in="SourceGraphic" in2="effect1_backgroundBlur" result="shape"/>
</filter>
<filter id="filter8_b" x="909.949" y="401.698" width="97.121" height="96.5794" filterUnits="userSpaceOnUse" color-interpolation-filters="sRGB">
<feFlood flood-opacity="0" result="BackgroundImageFix"/>
<feGaussianBlur in="BackgroundImage" stdDeviation="20"/>
<feComposite in2="SourceAlpha" operator="in" result="effect1_backgroundBlur"/>
<feBlend mode="normal" in="SourceGraphic" in2="effect1_backgroundBlur" result="shape"/>
</filter>
<filter id="filter9_b" x="1118" y="307" width="113.019" height="111.974" filterUnits="userSpaceOnUse" color-interpolation-filters="sRGB">
<feFlood flood-opacity="0" result="BackgroundImageFix"/>
<feGaussianBlur in="BackgroundImage" stdDeviation="20"/>
<feComposite in2="SourceAlpha" operator="in" result="effect1_backgroundBlur"/>
<feBlend mode="normal" in="SourceGraphic" in2="effect1_backgroundBlur" result="shape"/>
</filter>
<filter id="filter10_b" x="1125.95" y="314.698" width="97.121" height="96.5794" filterUnits="userSpaceOnUse" color-interpolation-filters="sRGB">
<feFlood flood-opacity="0" result="BackgroundImageFix"/>
<feGaussianBlur in="BackgroundImage" stdDeviation="20"/>
<feComposite in2="SourceAlpha" operator="in" result="effect1_backgroundBlur"/>
<feBlend mode="normal" in="SourceGraphic" in2="effect1_backgroundBlur" result="shape"/>
</filter>
<filter id="filter11_b" x="1363" y="264" width="113.019" height="111.974" filterUnits="userSpaceOnUse" color-interpolation-filters="sRGB">
<feFlood flood-opacity="0" result="BackgroundImageFix"/>
<feGaussianBlur in="BackgroundImage" stdDeviation="20"/>
<feComposite in2="SourceAlpha" operator="in" result="effect1_backgroundBlur"/>
<feBlend mode="normal" in="SourceGraphic" in2="effect1_backgroundBlur" result="shape"/>
</filter>
<filter id="filter12_b" x="1370.95" y="271.698" width="97.121" height="96.5794" filterUnits="userSpaceOnUse" color-interpolation-filters="sRGB">
<feFlood flood-opacity="0" result="BackgroundImageFix"/>
<feGaussianBlur in="BackgroundImage" stdDeviation="20"/>
<feComposite in2="SourceAlpha" operator="in" result="effect1_backgroundBlur"/>
<feBlend mode="normal" in="SourceGraphic" in2="effect1_backgroundBlur" result="shape"/>
</filter>
<filter id="filter13_b" x="1500" y="186" width="113.019" height="111.974" filterUnits="userSpaceOnUse" color-interpolation-filters="sRGB">
<feFlood flood-opacity="0" result="BackgroundImageFix"/>
<feGaussianBlur in="BackgroundImage" stdDeviation="20"/>
<feComposite in2="SourceAlpha" operator="in" result="effect1_backgroundBlur"/>
<feBlend mode="normal" in="SourceGraphic" in2="effect1_backgroundBlur" result="shape"/>
</filter>
<filter id="filter14_b" x="1507.95" y="193.698" width="97.121" height="96.5794" filterUnits="userSpaceOnUse" color-interpolation-filters="sRGB">
<feFlood flood-opacity="0" result="BackgroundImageFix"/>
<feGaussianBlur in="BackgroundImage" stdDeviation="20"/>
<feComposite in2="SourceAlpha" operator="in" result="effect1_backgroundBlur"/>
<feBlend mode="normal" in="SourceGraphic" in2="effect1_backgroundBlur" result="shape"/>
</filter>
<clipPath id="clip0">
<rect width="1920" height="3702" fill="white" transform="translate(-1 -2577)"/>
</clipPath>
</defs>
</svg>
